<?xml version="1.0" encoding="utf-8"?>
<!-- Generator: Adobe Illustrator 22.1.0, SVG Export Plug-In . SVG Version: 6.00 Build 0)  -->
<svg version="1.1" id="Layer_1" xmlns="http://www.w3.org/2000/svg" xmlns:xlink="http://www.w3.org/1999/xlink" x="0px" y="0px"
	 viewBox="0 0 251 245" style="enable-background:new 0 0 251 245;" xml:space="preserve">
<style type="text/css">
	.st0{fill:#3C3575;}
	.st1{fill:#D3C4FF;}
	.st2{fill:#FFFFFF;}
	.st3{fill:#8A7AFF;}
	.st4{fill:#FFCE3B;}
</style>
<g>
	<g>
		<g>
			<g>
				<path class="st0" d="M4.5,138.9c-0.6,0-1.2-0.5-1.3-1.1c-0.7-4.7-1.1-9.5-1.2-14.2c0-0.7,0.5-1.3,1.2-1.3c0.7,0,1.3,0.5,1.3,1.2
					c0.1,4.6,0.5,9.3,1.2,13.9c0.1,0.7-0.4,1.3-1.1,1.4C4.6,138.9,4.5,138.9,4.5,138.9z M3.7,110.7c0,0-0.1,0-0.1,0
					c-0.7-0.1-1.2-0.7-1.2-1.4c0.1-0.7,0.1-1.4,0.2-2.1c0.4-4,1-8.1,1.8-12c0.1-0.7,0.8-1.1,1.5-1c0.7,0.1,1.1,0.8,1,1.5
					c-0.8,3.9-1.4,7.8-1.8,11.8c-0.1,0.7-0.1,1.4-0.2,2C4.9,110.2,4.3,110.7,3.7,110.7z M9.3,83.1c-0.1,0-0.3,0-0.4-0.1
					c-0.7-0.2-1-0.9-0.8-1.6c1.5-4.5,3.2-9,5.2-13.3c0.3-0.6,1.1-0.9,1.7-0.6c0.6,0.3,0.9,1.1,0.6,1.7c-1.9,4.2-3.7,8.6-5.1,13
					C10.3,82.8,9.8,83.1,9.3,83.1z M21.1,57.6c-0.2,0-0.5-0.1-0.7-0.2c-0.6-0.4-0.8-1.1-0.4-1.7c2.5-4,5.2-8,8.1-11.7
					c0.4-0.6,1.2-0.7,1.8-0.2c0.6,0.4,0.7,1.2,0.2,1.8c-2.9,3.7-5.5,7.5-7.9,11.5C21.9,57.4,21.5,57.6,21.1,57.6z M38.4,35.4
					c-0.3,0-0.6-0.1-0.9-0.4c-0.5-0.5-0.5-1.3,0-1.8c3.3-3.4,6.9-6.6,10.6-9.6c0.5-0.4,1.3-0.4,1.8,0.2c0.4,0.5,0.4,1.3-0.2,1.8
					c-3.6,2.9-7.1,6.1-10.4,9.4C39.1,35.3,38.8,35.4,38.4,35.4z"/>
			</g>
			<g>
				<path class="st0" d="M123.2,243.6c-3.4-0.1-6.9-0.3-10.3-0.6c-1.3-0.1-2.6-0.3-3.9-0.5c-0.7-0.1-1.2-0.7-1.1-1.4
					c0.1-0.7,0.7-1.2,1.4-1.1c1.3,0.2,2.6,0.3,3.9,0.5c3.3,0.3,6.7,0.6,10,0.6c0.7,0,1.3,0.6,1.2,1.3
					C124.4,243.1,123.9,243.6,123.2,243.6z M137.3,243.1c-0.6,0-1.2-0.5-1.3-1.2c-0.1-0.7,0.4-1.3,1.1-1.4c4.6-0.4,9.3-1.1,13.8-2.1
					c0.7-0.1,1.4,0.3,1.5,1c0.1,0.7-0.3,1.4-1,1.5c-4.6,1-9.4,1.7-14.1,2.2C137.3,243.1,137.3,243.1,137.3,243.1z M95.3,239.9
					c-0.1,0-0.2,0-0.3,0c-4.6-1.2-9.2-2.6-13.6-4.3c-0.7-0.3-1-1-0.7-1.6c0.3-0.7,1-1,1.6-0.7c4.3,1.7,8.8,3.1,13.3,4.2
					c0.7,0.2,1.1,0.9,0.9,1.5C96.4,239.5,95.8,239.9,95.3,239.9z M164.8,237.3c-0.5,0-1-0.3-1.2-0.9c-0.2-0.7,0.1-1.4,0.8-1.6
					c4.4-1.5,8.7-3.2,12.9-5.2c0.6-0.3,1.4,0,1.7,0.6c0.3,0.6,0,1.4-0.6,1.7c-4.3,2-8.7,3.8-13.2,5.3
					C165.1,237.2,164.9,237.3,164.8,237.3z M69,229.8c-0.2,0-0.4,0-0.6-0.1c-4.2-2.2-8.3-4.7-12.2-7.3c-0.6-0.4-0.7-1.2-0.3-1.8
					c0.4-0.6,1.2-0.7,1.8-0.3c3.8,2.6,7.9,5,12,7.2c0.6,0.3,0.9,1.1,0.5,1.7C69.9,229.6,69.4,229.8,69,229.8z M45.7,214
					c-0.3,0-0.6-0.1-0.8-0.3c-3.6-3.1-7-6.4-10.2-9.9c-0.5-0.5-0.4-1.3,0.1-1.8c0.5-0.5,1.3-0.4,1.8,0.1c3.1,3.4,6.5,6.7,10,9.7
					c0.5,0.5,0.6,1.3,0.1,1.8C46.4,213.8,46.1,214,45.7,214z"/>
			</g>
			<g>
				<path class="st0" d="M244.7,149.6c-0.1,0-0.2,0-0.3,0c-0.7-0.2-1.1-0.8-0.9-1.5c1.1-4.5,1.9-9.1,2.4-13.7
					c0.1-0.7,0.7-1.2,1.4-1.1c0.7,0.1,1.2,0.7,1.1,1.4c-0.6,4.7-1.4,9.4-2.5,14C245.8,149.2,245.3,149.6,244.7,149.6z M248,121.6
					c-0.7,0-1.3-0.6-1.3-1.3l0-0.5c0-4.5-0.3-9-0.7-13.4c-0.1-0.7,0.4-1.3,1.1-1.4c0.7-0.1,1.3,0.4,1.4,1.1
					c0.5,4.5,0.8,9.2,0.8,13.7l0,0.5C249.3,121.1,248.7,121.6,248,121.6z M244.9,93.6c-0.6,0-1.1-0.4-1.2-1c-1-4.5-2.4-9-3.9-13.4
					c-0.2-0.7,0.1-1.4,0.8-1.6c0.7-0.2,1.4,0.1,1.6,0.8c1.6,4.5,2.9,9.1,4,13.7c0.2,0.7-0.3,1.4-1,1.5
					C245.1,93.6,245,93.6,244.9,93.6z M235.4,67.2c-0.5,0-0.9-0.3-1.1-0.7c-2.1-4.2-4.4-8.2-6.9-12.1c-0.4-0.6-0.2-1.4,0.4-1.8
					c0.6-0.4,1.4-0.2,1.8,0.4c2.6,4,4.9,8.1,7,12.4c0.3,0.6,0.1,1.4-0.6,1.7C235.8,67.1,235.6,67.2,235.4,67.2z M220.1,43.5
					c-0.4,0-0.7-0.2-1-0.5c-2.9-3.6-6.1-7-9.5-10.3c-0.5-0.5-0.5-1.3,0-1.8c0.5-0.5,1.3-0.5,1.8,0c3.4,3.3,6.7,6.8,9.7,10.5
					c0.4,0.5,0.4,1.3-0.2,1.8C220.7,43.4,220.4,43.5,220.1,43.5z M199.9,24c-0.3,0-0.5-0.1-0.8-0.3c-3.7-2.8-7.6-5.5-11.6-7.8
					c-0.6-0.4-0.8-1.1-0.4-1.7c0.4-0.6,1.1-0.8,1.7-0.4c4.1,2.4,8,5.1,11.8,8c0.6,0.4,0.7,1.2,0.2,1.8C200.7,23.8,200.3,24,199.9,24
					z M175.7,9.6c-0.2,0-0.4,0-0.5-0.1c-4.2-1.9-8.6-3.6-13.1-5c-0.7-0.2-1-0.9-0.8-1.6c0.2-0.7,0.9-1,1.6-0.8
					c4.5,1.4,9,3.1,13.3,5.1c0.6,0.3,0.9,1,0.6,1.7C176.6,9.3,176.2,9.6,175.7,9.6z"/>
			</g>
		</g>
		<g>
			
				<ellipse transform="matrix(0.7071 -0.7071 0.7071 0.7071 -48.0579 123.9813)" class="st1" cx="125.6" cy="120" rx="90.1" ry="90.1"/>
		</g>
	</g>
	<g>
		<g>
			<g>
				<g>
					<ellipse class="st2" cx="35.8" cy="116.2" rx="7.2" ry="7.2"/>
					<path class="st0" d="M35.8,124.7c-4.7,0-8.5-3.8-8.5-8.5c0-4.7,3.8-8.5,8.5-8.5c4.7,0,8.5,3.8,8.5,8.5
						C44.3,120.9,40.5,124.7,35.8,124.7z M35.8,110.3c-3.3,0-5.9,2.7-5.9,6c0,3.3,2.7,6,5.9,6c3.3,0,5.9-2.7,5.9-6
						C41.7,112.9,39.1,110.3,35.8,110.3z"/>
				</g>
				<g>
					<path class="st3" d="M50.7,133.8c-0.8-4.3-4.6-7.2-9.3-7.2c0,0-0.1,0-0.1,0l-10.3-0.1c0,0,0,0-0.1,0c-4.8,0.1-8.5,3-9.2,7.4
						l-3.5,22.2c-0.3,1.9,1,3.7,2.9,4c1.9,0.3,3.7-1,4-2.9l2.9-18.2c0,0,0.4,15.4,0.4,15.5l-1.6,34.9c-0.1,2,1.5,3.8,3.5,3.9
						c0.1,0,0.1,0,0.2,0c2,0,3.6-1.5,3.7-3.5l1.3-28.2c0.4,0.1,0.7,0.1,1.1,0.1c0.1,0,0.1,0,0.2,0c0.3,0,0.6,0,0.9-0.1l1.2,28.6
						c0.1,2,1.7,3.6,3.7,3.6c0.1,0,0.1,0,0.2,0c2-0.1,3.6-1.8,3.6-3.9l-1.4-34.9c0-0.2-0.4-16.1-0.4-16.1l4,19.9
						c0.3,1.7,1.8,2.8,3.4,2.8c0.2,0,0.4,0,0.7-0.1c1.9-0.4,3.1-2.2,2.8-4.1L50.7,133.8z"/>
					<path class="st0" d="M42.5,195c-2.7,0-4.9-2.1-5-4.8l-1-24.8l-1.1,24.4c-0.1,2.7-2.4,4.9-5.2,4.7c-1.3-0.1-2.5-0.6-3.4-1.6
						c-0.9-1-1.4-2.3-1.3-3.6l1.6-34.9c0-0.1,0-0.5,0-1.3l-0.7,4.3c-0.4,2.6-2.9,4.4-5.5,4c-2.6-0.4-4.4-2.9-4-5.5l3.5-22.2
						c0.8-5,5-8.4,10.5-8.4c0,0,0.1,0,0.1,0l10.3,0.1l0.1,0c5.3,0,9.7,3.4,10.5,8.3l4.6,23.5c0.2,1.3,0,2.5-0.7,3.6
						c-0.7,1.1-1.8,1.8-3,2c-0.3,0.1-0.6,0.1-0.9,0.1c-2.3,0-4.2-1.6-4.7-3.9l-1.2-5.8c0,1,0,1.6,0,1.7l1.4,34.9
						c0.1,1.3-0.4,2.6-1.3,3.6c-0.9,1-2.1,1.5-3.5,1.6C42.6,195,42.5,195,42.5,195z M37.6,160.3c0.3,0,0.6,0.1,0.8,0.3
						c0.3,0.2,0.4,0.6,0.5,0.9l1.2,28.6c0.1,1.3,1.1,2.3,2.4,2.3l0.1,0c0.7,0,1.3-0.3,1.7-0.8c0.4-0.5,0.7-1.1,0.6-1.7L43.5,155
						c0-0.2-0.3-13.5-0.4-16.1c0-0.7,0.5-1.2,1.1-1.3c0.7-0.1,1.3,0.4,1.4,1l4,19.9c0.2,1.2,1.4,2,2.6,1.8c0.6-0.1,1.1-0.4,1.4-0.9
						c0.3-0.5,0.5-1.1,0.3-1.7l-4.6-23.6c-0.7-3.7-4-6.2-8-6.2l-0.1,0l-10.4-0.1c-4.2,0.1-7.4,2.6-8,6.3l-3.5,22.2
						c-0.2,1.2,0.6,2.4,1.9,2.5c1.2,0.2,2.4-0.6,2.5-1.9l2.9-18.2c0.1-0.7,0.7-1.1,1.3-1.1c0.7,0,1.2,0.6,1.2,1.2
						c0.4,15.4,0.4,15.5,0.4,15.5L28,189.5c0,0.6,0.2,1.3,0.6,1.8c0.4,0.5,1,0.8,1.7,0.8l0.1,0c1.3,0,2.4-1,2.4-2.3l1.3-28.2
						c0-0.4,0.2-0.7,0.5-0.9c0.3-0.2,0.6-0.3,1-0.3c0.4,0,0.7,0.1,0.9,0.1l0.2,0c0.3,0,0.5,0,0.8-0.1
						C37.5,160.3,37.6,160.3,37.6,160.3z"/>
				</g>
			</g>
			<g>
				<g>
					<ellipse class="st2" cx="100.5" cy="116.2" rx="7.2" ry="7.2"/>
					<path class="st0" d="M100.5,124.7c-4.7,0-8.5-3.8-8.5-8.5c0-4.7,3.8-8.5,8.5-8.5c4.7,0,8.5,3.8,8.5,8.5
						C109,120.9,105.2,124.7,100.5,124.7z M100.5,110.3c-3.3,0-5.9,2.7-5.9,6c0,3.3,2.7,6,5.9,6c3.3,0,5.9-2.7,5.9-6
						C106.5,112.9,103.8,110.3,100.5,110.3z"/>
				</g>
				<g>
					<path class="st4" d="M115.4,133.8c-0.8-4.3-4.6-7.2-9.3-7.2c0,0-0.1,0-0.1,0l-10.3-0.1c0,0,0,0-0.1,0c-4.8,0.1-8.5,3-9.2,7.4
						l-3.5,22.2c-0.3,1.9,1,3.7,2.9,4c1.9,0.3,3.7-1,4-2.9l2.9-18.2c0,0,0.4,15.4,0.4,15.5l-1.6,34.9c-0.1,2,1.5,3.8,3.5,3.9
						c0.1,0,0.1,0,0.2,0c2,0,3.6-1.5,3.7-3.5l1.3-28.2c0.4,0.1,0.7,0.1,1.1,0.1c0.1,0,0.1,0,0.2,0c0.3,0,0.6,0,0.9-0.1l1.2,28.6
						c0.1,2,1.7,3.6,3.7,3.6c0.1,0,0.1,0,0.2,0c2-0.1,3.6-1.8,3.6-3.9l-1.4-34.9c0-0.2-0.4-16.1-0.4-16.1l4,19.9
						c0.3,1.7,1.8,2.8,3.4,2.8c0.2,0,0.4,0,0.7-0.1c1.9-0.4,3.1-2.2,2.8-4.1L115.4,133.8z"/>
					<path class="st0" d="M107.2,195c-2.7,0-4.9-2.1-5-4.8l-1-24.8l-1.1,24.4c-0.1,2.7-2.4,4.9-5.2,4.7c-1.3-0.1-2.5-0.6-3.4-1.6
						c-0.9-1-1.4-2.3-1.3-3.6l1.6-34.9c0-0.1,0-0.5,0-1.3l-0.7,4.3c-0.4,2.6-2.9,4.4-5.5,4c-2.6-0.4-4.4-2.9-4-5.5l3.5-22.2
						c0.8-5,5-8.4,10.5-8.4c0,0,0.1,0,0.1,0l10.3,0.1l0.1,0c5.3,0,9.7,3.4,10.5,8.3l4.6,23.5c0.2,1.3,0,2.5-0.7,3.6
						c-0.7,1.1-1.8,1.8-3,2c-0.3,0.1-0.6,0.1-0.9,0.1c-2.3,0-4.2-1.6-4.7-3.9l-1.2-5.8c0,1,0,1.6,0,1.7l1.4,34.9
						c0.1,1.3-0.4,2.6-1.3,3.6c-0.9,1-2.1,1.5-3.5,1.6C107.4,195,107.3,195,107.2,195z M102.4,160.3c0.3,0,0.6,0.1,0.8,0.3
						c0.3,0.2,0.4,0.6,0.5,0.9l1.2,28.6c0.1,1.3,1.1,2.3,2.4,2.3l0.1,0c0.7,0,1.3-0.3,1.7-0.8c0.4-0.5,0.7-1.1,0.6-1.7l-1.4-34.9
						c0-0.2-0.3-13.5-0.4-16.1c0-0.7,0.5-1.2,1.1-1.3c0.7-0.1,1.3,0.4,1.4,1l4,19.9c0.2,1.2,1.4,2,2.6,1.8c0.6-0.1,1.1-0.4,1.4-0.9
						c0.3-0.5,0.5-1.1,0.3-1.7l-4.6-23.6c-0.7-3.7-4-6.2-8-6.2l-0.1,0l-10.4-0.1c-4.2,0.1-7.4,2.6-8,6.3l-3.5,22.2
						c-0.2,1.2,0.6,2.4,1.9,2.5c1.2,0.2,2.4-0.6,2.5-1.9l2.9-18.2c0.1-0.7,0.7-1.1,1.3-1.1c0.7,0,1.2,0.6,1.2,1.2
						c0.4,15.4,0.4,15.5,0.4,15.5l-1.6,34.9c0,0.6,0.2,1.3,0.6,1.8c0.4,0.5,1,0.8,1.7,0.8l0.1,0c1.3,0,2.4-1,2.4-2.3l1.3-28.2
						c0-0.4,0.2-0.7,0.5-0.9c0.3-0.2,0.6-0.3,1-0.3c0.4,0,0.7,0.1,0.9,0.1l0.2,0c0.3,0,0.5,0,0.8-0.1
						C102.2,160.3,102.3,160.3,102.4,160.3z"/>
				</g>
			</g>
		</g>
		<g>
			<g>
				<path class="st2" d="M54.3,116.2h29.5H54.3z"/>
				<path class="st0" d="M83.8,117.5H54.3c-0.7,0-1.3-0.6-1.3-1.3c0-0.7,0.6-1.3,1.3-1.3h29.5c0.7,0,1.3,0.6,1.3,1.3
					C85.1,116.9,84.5,117.5,83.8,117.5z"/>
			</g>
			<g>
				<path class="st0" d="M57.8,121.5c-0.3,0-0.6-0.1-0.8-0.3l-4.5-4c-0.3-0.2-0.4-0.6-0.4-1c0-0.4,0.2-0.7,0.4-1l4.5-4
					c0.5-0.5,1.3-0.4,1.8,0.1s0.4,1.3-0.1,1.8l-3.5,3.1l3.5,3.1c0.5,0.5,0.6,1.3,0.1,1.8C58.5,121.4,58.2,121.5,57.8,121.5z"/>
			</g>
			<g>
				<path class="st0" d="M80.4,121.5c-0.4,0-0.7-0.1-1-0.4c-0.5-0.5-0.4-1.3,0.1-1.8l3.5-3.1l-3.5-3.1c-0.5-0.5-0.6-1.3-0.1-1.8
					c0.5-0.5,1.3-0.6,1.8-0.1l4.5,4c0.3,0.2,0.4,0.6,0.4,1c0,0.4-0.2,0.7-0.4,1l-4.5,4C81,121.4,80.7,121.5,80.4,121.5z"/>
			</g>
		</g>
	</g>
	<g>
		<g>
			<g>
				<ellipse class="st2" cx="72.7" cy="19.4" rx="6.3" ry="6.3"/>
				<path class="st0" d="M72.7,27c-4.2,0-7.6-3.4-7.6-7.6c0-4.2,3.4-7.6,7.6-7.6s7.6,3.4,7.6,7.6C80.3,23.6,76.9,27,72.7,27z
					 M72.7,14.4c-2.8,0-5,2.3-5,5.1c0,2.8,2.3,5.1,5,5.1c2.8,0,5-2.3,5-5.1C77.8,16.6,75.5,14.4,72.7,14.4z"/>
			</g>
			<g>
				<path class="st3" d="M85.8,34.8c-0.7-3.8-4-6.3-8.2-6.3c0,0-0.1,0-0.1,0l-9.1,0c0,0,0,0-0.1,0c-4.2,0.1-7.4,2.6-8.1,6.5
					l-3.1,19.5c-0.3,1.7,0.9,3.2,2.6,3.5c1.7,0.3,3.2-0.9,3.5-2.6l2.5-16c0,0,0.3,13.5,0.3,13.6l-1.4,30.6c-0.1,1.8,1.3,3.3,3.1,3.4
					c0.1,0,0.1,0,0.2,0c1.7,0,3.2-1.4,3.2-3.1l1.1-24.7c0.3,0,0.6,0.1,1,0.1c0.1,0,0.1,0,0.2,0c0.3,0,0.5,0,0.8-0.1l1,25.1
					c0.1,1.7,1.5,3.1,3.2,3.1c0,0,0.1,0,0.1,0c1.8-0.1,3.2-1.6,3.1-3.4l-1.2-30.6c0-0.2-0.3-14.1-0.3-14.1l3.5,17.4
					c0.3,1.5,1.6,2.5,3,2.5c0.2,0,0.4,0,0.6-0.1c1.7-0.3,2.7-1.9,2.4-3.6L85.8,34.8z"/>
				<path class="st0" d="M78.6,88.6c-2.4,0-4.4-1.9-4.5-4.3l-0.7-18.1L72.5,84c-0.1,2.5-2.2,4.4-4.7,4.3c-1.2-0.1-2.3-0.6-3.1-1.5
					c-0.8-0.9-1.2-2-1.2-3.3l1.4-29.7l-0.3,1.7c-0.4,2.4-2.6,4-5,3.6c-2.4-0.4-4-2.6-3.6-5L59,34.7c0.7-4.4,4.5-7.5,9.3-7.5l9.1,0
					l0.1,1.3v-1.3c4.8,0,8.6,3,9.4,7.4l4,20.6c0.2,1.1,0,2.3-0.7,3.3c-0.6,1-1.6,1.6-2.8,1.8c-2.3,0.5-4.6-1.1-5.1-3.4l-0.7-3.3
					l1.2,30.3c0,1.2-0.4,2.4-1.2,3.2s-1.9,1.4-3.1,1.5C78.7,88.6,78.6,88.6,78.6,88.6z M74.3,57.9c0.3,0,0.6,0.1,0.8,0.3
					c0.3,0.2,0.4,0.6,0.5,0.9l1,25.1c0,1.1,0.9,1.9,2,1.9c0.6,0,1.1-0.2,1.5-0.6c0.4-0.4,0.5-0.9,0.5-1.4l-1.2-30.6
					c0-0.2-0.3-11.8-0.3-14.1c0-0.7,0.5-1.2,1.1-1.3c0.7-0.1,1.3,0.4,1.4,1L85,56.4c0.2,1,1.1,1.6,2.1,1.4c0.5-0.1,0.9-0.4,1.1-0.8
					c0.3-0.4,0.4-0.9,0.3-1.3l-4-20.7c-0.6-3.1-3.4-5.3-6.9-5.3c0,0-0.1,0-0.1,0l-9.1,0c-3.6,0-6.3,2.2-6.9,5.4l-3.1,19.5
					c-0.2,1,0.5,1.9,1.5,2.1c1,0.2,1.9-0.5,2.1-1.5l2.5-16c0.1-0.7,0.7-1.1,1.3-1.1c0.7,0,1.2,0.6,1.2,1.2
					C67.4,52.9,67.4,53,67.4,53L66,83.7c0,0.5,0.2,1,0.5,1.4c0.4,0.4,0.8,0.6,1.4,0.6l0.1,0c1.1,0,1.9-0.8,2-1.9l1.1-24.7
					c0-0.4,0.2-0.7,0.5-0.9c0.3-0.2,0.6-0.3,1-0.3c0.3,0,0.6,0.1,0.8,0.1l0.2,0c0.2,0,0.4,0,0.6-0.1C74.2,57.9,74.2,57.9,74.3,57.9z
					"/>
			</g>
		</g>
		<g>
			<g>
				<ellipse class="st2" cx="91.1" cy="18" rx="6.6" ry="6.6"/>
				<path class="st0" d="M91.1,25.9c-4.3,0-7.9-3.5-7.9-7.9c0-4.4,3.5-7.9,7.9-7.9c4.3,0,7.9,3.5,7.9,7.9
					C99,22.4,95.4,25.9,91.1,25.9z M91.1,12.7c-2.9,0-5.3,2.4-5.3,5.4c0,3,2.4,5.4,5.3,5.4c2.9,0,5.3-2.4,5.3-5.4
					C96.4,15.1,94,12.7,91.1,12.7z"/>
			</g>
			<g>
				<path class="st2" d="M104.7,34.2c-0.7-3.9-4.2-6.6-8.5-6.6c0,0-0.1,0-0.1,0l-9.5,0c0,0,0,0-0.1,0c-4.4,0.1-7.8,2.8-8.4,6.8
					l-3.2,20.4c-0.3,1.8,0.9,3.4,2.7,3.7c1.8,0.3,3.4-0.9,3.7-2.7l2.6-16.7c0,0,0.3,14.1,0.3,14.2l-1.5,32c-0.1,1.9,1.4,3.5,3.2,3.5
					c0.1,0,0.1,0,0.2,0c1.8,0,3.3-1.4,3.4-3.2l1.2-25.9c0.3,0,0.7,0.1,1,0.1c0.1,0,0.1,0,0.2,0c0.3,0,0.6,0,0.8-0.1l1.1,26.2
					c0.1,1.8,1.6,3.3,3.4,3.3c0,0,0.1,0,0.1,0c1.9-0.1,3.3-1.7,3.3-3.5l-1.3-32c0-0.2-0.3-14.8-0.3-14.8l3.7,18.2
					c0.3,1.5,1.6,2.6,3.1,2.6c0.2,0,0.4,0,0.6-0.1c1.7-0.3,2.9-2,2.5-3.8L104.7,34.2z"/>
				<path class="st0" d="M97.2,90.3c-2.5,0-4.6-2-4.7-4.5l-0.8-20.3l-0.9,20c-0.1,2.6-2.3,4.6-4.9,4.5c-1.2-0.1-2.4-0.6-3.2-1.5
					c-0.8-0.9-1.3-2.1-1.2-3.4L83,53c0,0-0.4,2.8-0.4,2.8c-0.4,2.4-2.7,4.1-5.1,3.7c-2.4-0.4-4.1-2.7-3.7-5.1L76.9,34
					c0.8-4.6,4.7-7.8,9.7-7.8l9.6,0l0.1,0c4.9,0,9,3.2,9.8,7.7l4.2,21.6c0.2,1.2,0,2.4-0.7,3.4c-0.7,1-1.7,1.7-2.9,1.9
					c-2.4,0.5-4.8-1.2-5.3-3.5l-0.8-4.1c0,0.2,0,0.3,0,0.3l1.3,32c0.1,1.2-0.4,2.4-1.2,3.4c-0.8,0.9-2,1.5-3.2,1.5
					C97.4,90.3,97.3,90.3,97.2,90.3z M92.8,58.3c0.3,0,0.6,0.1,0.8,0.3c0.3,0.2,0.4,0.6,0.5,0.9l1.1,26.2c0,1.1,1,2,2.1,2
					c0,0,0.1,0,0.1,0c0.6,0,1.1-0.3,1.5-0.7c0.4-0.4,0.6-1,0.6-1.5l-1.3-32c0-0.2-0.3-12.4-0.3-14.8c0-0.7,0.5-1.2,1.1-1.3
					c0.7-0.1,1.3,0.4,1.4,1l3.7,18.2c0.2,1,1.2,1.7,2.3,1.5c0.5-0.1,0.9-0.4,1.2-0.8c0.3-0.4,0.4-0.9,0.3-1.5l-4.2-21.6
					c-0.6-3.3-3.6-5.6-7.3-5.6l-0.1,0l-9.5,0c-3.8,0-6.7,2.3-7.2,5.7l-3.2,20.4c-0.2,1.1,0.6,2,1.6,2.2c1.1,0.2,2-0.6,2.2-1.6
					l2.6-16.7c0.1-0.7,0.7-1.1,1.3-1.1c0.7,0,1.2,0.6,1.2,1.2c0.4,14.1,0.3,14.2,0.3,14.3l-1.5,32c0,0.6,0.2,1.1,0.6,1.5
					c0.4,0.4,0.9,0.7,1.5,0.7l0.1,0c1.1,0,2.1-0.9,2.1-2l1.2-25.9c0-0.4,0.2-0.7,0.5-0.9c0.3-0.2,0.6-0.3,1-0.3
					c0.3,0,0.6,0.1,0.9,0.1l0.2,0c0.2,0,0.5,0,0.7-0.1C92.7,58.3,92.7,58.3,92.8,58.3z"/>
			</g>
		</g>
		<g>
			<g>
				<ellipse class="st2" cx="110.6" cy="16.5" rx="6.9" ry="7"/>
				<path class="st0" d="M110.6,24.7c-4.5,0-8.2-3.7-8.2-8.2c0-4.5,3.7-8.2,8.2-8.2c4.5,0,8.2,3.7,8.2,8.2
					C118.8,21,115.1,24.7,110.6,24.7z M110.6,10.8c-3.1,0-5.7,2.5-5.7,5.7s2.5,5.7,5.7,5.7s5.7-2.5,5.7-5.7S113.7,10.8,110.6,10.8z"
					/>
			</g>
			<g>
				<path class="st3" d="M124.9,33.4c-0.7-4.1-4.4-7-8.9-7c0,0-0.1,0-0.1,0l-9.9,0c0,0,0,0-0.1,0c-4.6,0.1-8.2,2.9-8.9,7.1
					l-3.4,21.4c-0.3,1.8,1,3.6,2.8,3.8c1.8,0.3,3.6-1,3.8-2.8l2.7-17.5c0,0,0.4,14.8,0.4,14.9l-1.5,33.6c-0.1,2,1.4,3.6,3.4,3.7
					c0.1,0,0.1,0,0.2,0c1.9,0,3.5-1.5,3.6-3.4l1.2-27.1c0.4,0,0.7,0.1,1.1,0.1c0.1,0,0.1,0,0.2,0c0.3,0,0.6,0,0.9-0.1l1.1,27.5
					c0.1,1.9,1.7,3.4,3.6,3.4c0,0,0.1,0,0.1,0c2-0.1,3.5-1.7,3.4-3.7l-1.4-33.6c0-0.2-0.4-15.5-0.4-15.5l3.9,19.1
					c0.3,1.6,1.7,2.7,3.3,2.7c0.2,0,0.4,0,0.6-0.1c1.8-0.4,3-2.1,2.7-3.9L124.9,33.4z"/>
				<path class="st0" d="M117,92.2c-2.6,0-4.7-2-4.8-4.6l-0.9-22.7l-1,22.4c-0.1,2.7-2.4,4.7-5.1,4.6c-1.3-0.1-2.5-0.6-3.3-1.6
					c-0.9-1-1.3-2.2-1.3-3.5l1.5-33.6c0,0,0-0.3,0-0.7l-0.6,3.6c-0.4,2.5-2.8,4.3-5.3,3.9c-2.5-0.4-4.3-2.8-3.9-5.3l3.4-21.4
					c0.8-4.8,4.9-8.1,10.1-8.2l10,0l0.1,0c5.2,0,9.3,3.3,10.2,8l4.4,22.6c0.5,2.5-1.2,4.9-3.7,5.4c-2.5,0.5-5-1.2-5.4-3.7l-1-5
					c0,0.6,0,1,0,1.1l1.4,33.6c0.1,1.3-0.4,2.5-1.3,3.5s-2.1,1.5-3.4,1.6C117.2,92.2,117.1,92.2,117,92.2z M112.4,58.8
					c0.3,0,0.6,0.1,0.8,0.3c0.3,0.2,0.4,0.6,0.5,0.9l1.1,27.5c0.1,1.2,1.1,2.2,2.3,2.2c0,0,0.1,0,0.1,0c0.6,0,1.2-0.3,1.6-0.7
					c0.4-0.4,0.6-1,0.6-1.6L118,53.7c0-0.2-0.3-12.9-0.4-15.5c0-0.7,0.5-1.2,1.1-1.3c0.7-0.1,1.3,0.4,1.4,1l3.9,19.1
					c0.2,1.1,1.3,1.9,2.5,1.7c1.1-0.2,1.9-1.3,1.7-2.5l-4.4-22.6c-0.6-3.5-3.8-5.9-7.7-5.9l-0.1,0l-10,0c-4,0.1-7.1,2.5-7.7,6
					L94.9,55c-0.2,1.1,0.6,2.2,1.7,2.4c1.1,0.2,2.2-0.6,2.4-1.7l2.7-17.5c0.1-0.7,0.7-1.1,1.3-1.1c0.7,0,1.2,0.6,1.2,1.2
					c0.4,14.8,0.4,14.9,0.4,14.9l-1.5,33.6c0,0.6,0.2,1.2,0.6,1.6c0.4,0.5,1,0.7,1.6,0.7l0.1,0c1.2,0,2.2-1,2.3-2.2L109,60
					c0-0.4,0.2-0.7,0.5-0.9c0.3-0.2,0.6-0.3,1-0.3c0.3,0,0.6,0.1,0.9,0.1l0.2,0c0.2,0,0.5,0,0.7-0.1
					C112.3,58.8,112.3,58.8,112.4,58.8z"/>
			</g>
		</g>
		<g>
			<g>
				<ellipse class="st2" cx="130.5" cy="15.1" rx="7.2" ry="7.2"/>
				<path class="st0" d="M130.5,23.6c-4.7,0-8.5-3.8-8.5-8.5c0-4.7,3.8-8.5,8.5-8.5c4.7,0,8.5,3.8,8.5,8.5
					C139,19.8,135.2,23.6,130.5,23.6z M130.5,9.1c-3.3,0-5.9,2.7-5.9,6c0,3.3,2.7,6,5.9,6c3.3,0,5.9-2.7,5.9-6
					C136.5,11.8,133.8,9.1,130.5,9.1z"/>
			</g>
			<g>
				<path class="st2" d="M145.4,32.7c-0.8-4.3-4.6-7.2-9.3-7.2c0,0-0.1,0-0.1,0l-10.3-0.1c0,0,0,0-0.1,0c-4.8,0.1-8.5,3-9.2,7.4
					L112.9,55c-0.3,1.9,1,3.7,2.9,4c1.9,0.3,3.7-1,4-2.9l2.9-18.2c0,0,0.4,15.4,0.4,15.5l-1.6,34.9c-0.1,2,1.5,3.8,3.5,3.9
					c0.1,0,0.1,0,0.2,0c2,0,3.6-1.5,3.7-3.5l1.3-28.2c0.4,0.1,0.7,0.1,1.1,0.1c0.1,0,0.1,0,0.2,0c0.3,0,0.6,0,0.9-0.1l1.2,28.6
					c0.1,2,1.7,3.6,3.7,3.6c0.1,0,0.1,0,0.2,0c2-0.1,3.6-1.8,3.6-3.9l-1.4-34.9c0-0.2-0.4-16.1-0.4-16.1l4,19.9
					c0.3,1.7,1.8,2.8,3.4,2.8c0.2,0,0.4,0,0.7-0.1c1.9-0.4,3.1-2.2,2.8-4.1L145.4,32.7z"/>
				<path class="st0" d="M137.2,93.8c-2.7,0-4.9-2.1-5-4.8l-1-24.8l-1.1,24.4c-0.1,2.7-2.4,4.9-5.2,4.7c-1.3-0.1-2.6-0.6-3.4-1.6
					c-0.9-1-1.4-2.3-1.3-3.6l1.6-34.9c0-0.1,0-0.5,0-1.3l-0.7,4.3c-0.4,2.6-2.9,4.4-5.5,4c-2.6-0.4-4.4-2.9-4-5.5l3.5-22.2
					c0.8-5,5-8.4,10.5-8.4c0,0,0.1,0,0.1,0l10.3,0.1l0.1,0c5.3,0,9.7,3.4,10.5,8.3l4.6,23.5c0.5,2.6-1.2,5.1-3.8,5.6
					c-0.3,0.1-0.6,0.1-0.9,0.1c-2.3,0-4.2-1.6-4.7-3.9l-1.2-5.8c0,1,0,1.6,0,1.7l1.4,34.9c0.1,1.3-0.4,2.6-1.3,3.6
					c-0.9,1-2.1,1.5-3.5,1.6C137.4,93.8,137.3,93.8,137.2,93.8z M132.4,59.2c0.3,0,0.6,0.1,0.8,0.3c0.3,0.2,0.4,0.6,0.5,0.9
					l1.2,28.6c0.1,1.3,1.1,2.3,2.4,2.3l0.1,0c0.7,0,1.3-0.3,1.7-0.8c0.4-0.5,0.7-1.1,0.6-1.7l-1.4-34.9c0-0.2-0.3-13.5-0.4-16.1
					c0-0.7,0.5-1.2,1.1-1.3c0.7-0.1,1.3,0.4,1.4,1l4,19.9c0.2,1.2,1.4,2,2.6,1.8c1.2-0.2,2-1.4,1.8-2.6l-4.6-23.6
					c-0.7-3.7-4-6.2-8-6.2l-0.1,0l-10.4-0.1c-4.2,0.1-7.4,2.6-8,6.3l-3.5,22.2c-0.2,1.2,0.6,2.4,1.9,2.5c1.2,0.2,2.4-0.6,2.5-1.9
					l2.9-18.2c0.1-0.7,0.7-1.1,1.3-1.1c0.7,0,1.2,0.6,1.2,1.2c0.4,15.4,0.4,15.5,0.4,15.5l-1.6,34.9c0,0.6,0.2,1.3,0.6,1.8
					c0.4,0.5,1,0.8,1.7,0.8l0.1,0c1.3,0,2.4-1,2.4-2.3l1.3-28.2c0-0.4,0.2-0.7,0.5-0.9c0.3-0.2,0.6-0.3,1-0.3
					c0.4,0.1,0.7,0.1,0.9,0.1l0.2,0c0.3,0,0.5,0,0.8-0.1C132.2,59.2,132.3,59.2,132.4,59.2z"/>
			</g>
		</g>
		<g>
			<g>
				<ellipse class="st2" cx="150.1" cy="15.1" rx="7.2" ry="7.2"/>
				<path class="st0" d="M150.1,23.6c-4.7,0-8.5-3.8-8.5-8.5c0-4.7,3.8-8.5,8.5-8.5c4.7,0,8.5,3.8,8.5,8.5
					C158.6,19.8,154.8,23.6,150.1,23.6z M150.1,9.1c-3.3,0-5.9,2.7-5.9,6c0,3.3,2.7,6,5.9,6c3.3,0,5.9-2.7,5.9-6
					C156,11.8,153.4,9.1,150.1,9.1z"/>
			</g>
			<g>
				<path class="st3" d="M165,32.7c-0.8-4.3-4.6-7.2-9.3-7.2c0,0-0.1,0-0.1,0l-10.3-0.1c0,0,0,0-0.1,0c-4.8,0.1-8.5,3-9.2,7.4
					L132.5,55c-0.3,1.9,1,3.7,2.9,4c1.9,0.3,3.7-1,4-2.9l2.9-18.2c0,0,0.4,15.4,0.4,15.5L141,88.3c-0.1,2,1.5,3.8,3.5,3.9
					c0.1,0,0.1,0,0.2,0c2,0,3.6-1.5,3.7-3.5l1.3-28.2c0.4,0.1,0.7,0.1,1.1,0.1c0.1,0,0.1,0,0.2,0c0.3,0,0.6,0,0.9-0.1l1.2,28.6
					c0.1,2,1.7,3.6,3.7,3.6c0.1,0,0.1,0,0.2,0c2-0.1,3.6-1.8,3.6-3.9l-1.4-34.9c0-0.2-0.4-16.1-0.4-16.1l4,19.9
					c0.3,1.7,1.8,2.8,3.4,2.8c0.2,0,0.4,0,0.7-0.1c1.9-0.4,3.1-2.2,2.8-4.1L165,32.7z"/>
				<path class="st0" d="M156.8,93.8c-2.7,0-4.9-2.1-5-4.8l-1-24.8l-1.1,24.4c-0.1,2.7-2.4,4.9-5.2,4.7c-1.3-0.1-2.6-0.6-3.4-1.6
					c-0.9-1-1.4-2.3-1.3-3.6l1.6-34.9c0-0.1,0-0.5,0-1.3l-0.7,4.3c-0.4,2.6-2.9,4.4-5.5,4c-2.6-0.4-4.4-2.9-4-5.5l3.5-22.2
					c0.8-5,5-8.4,10.5-8.4c0,0,0.1,0,0.1,0l10.3,0.1l0.1,0c5.3,0,9.7,3.4,10.5,8.3l4.6,23.5c0.5,2.6-1.2,5.1-3.8,5.6
					c-0.3,0.1-0.6,0.1-0.9,0.1c-2.3,0-4.2-1.6-4.7-3.9l-1.2-5.8c0,1,0,1.6,0,1.7l1.4,34.9c0.1,1.3-0.4,2.6-1.3,3.6
					c-0.9,1-2.1,1.5-3.5,1.6C156.9,93.8,156.9,93.8,156.8,93.8z M151.9,59.2c0.3,0,0.6,0.1,0.8,0.3c0.3,0.2,0.4,0.6,0.5,0.9
					l1.2,28.6c0.1,1.3,1.1,2.3,2.4,2.3l0.1,0c0.7,0,1.3-0.3,1.7-0.8c0.4-0.5,0.7-1.1,0.6-1.7l-1.4-34.9c0-0.2-0.3-13.5-0.4-16.1
					c0-0.7,0.5-1.2,1.1-1.3c0.7-0.1,1.3,0.4,1.4,1l4,19.9c0.2,1.2,1.4,2,2.6,1.8c1.2-0.2,2-1.4,1.8-2.6l-4.6-23.6
					c-0.7-3.7-4-6.2-8-6.2l-0.1,0l-10.4-0.1c-4.2,0.1-7.4,2.6-8,6.3l-3.5,22.2c-0.2,1.2,0.6,2.4,1.9,2.5c1.2,0.2,2.4-0.6,2.5-1.9
					l2.9-18.2c0.1-0.7,0.7-1.1,1.3-1.1c0.7,0,1.2,0.6,1.2,1.2c0.4,15.4,0.4,15.5,0.4,15.5l-1.6,34.9c0,0.6,0.2,1.3,0.6,1.8
					c0.4,0.5,1,0.8,1.7,0.8l0.1,0c1.3,0,2.4-1,2.4-2.3l1.3-28.2c0-0.4,0.2-0.7,0.5-0.9c0.3-0.2,0.6-0.3,1-0.3
					c0.4,0.1,0.7,0.1,0.9,0.1l0.2,0c0.3,0,0.5,0,0.8-0.1C151.8,59.2,151.9,59.2,151.9,59.2z"/>
			</g>
		</g>
		
			<ellipse transform="matrix(0.2298 -0.9732 0.9732 0.2298 52.5133 216.8153)" class="st2" cx="163.2" cy="75.2" rx="18.1" ry="18.1"/>
		<g>
			<path class="st4" d="M163.8,52.9c-12.3-0.3-22.6,9.4-23,21.8c-0.3,12.3,9.4,22.6,21.8,23c12.3,0.3,22.6-9.4,23-21.8
				C185.9,63.5,176.2,53.2,163.8,52.9z M148.9,74.1c0.2-7.5,6.5-13.5,14-13.3c3,0.1,5.8,1.1,8,2.8l-19.6,18.5
				C149.7,79.9,148.8,77.1,148.9,74.1z M163.5,89.6c-3-0.1-5.8-1.1-8-2.8l19.6-18.5c1.6,2.3,2.5,5.1,2.4,8.1
				C177.4,83.9,171.1,89.8,163.5,89.6z"/>
			<path class="st0" d="M163.2,98.9c-0.2,0-0.4,0-0.7,0c-13-0.4-23.3-11.3-23-24.3c0.2-6.3,2.8-12.2,7.4-16.5
				c4.6-4.3,10.6-6.6,16.9-6.5c13,0.4,23.3,11.3,23,24.3C186.5,88.7,176,98.9,163.2,98.9z M163.2,54.1c-5.4,0-10.5,2-14.5,5.8
				c-4.1,3.9-6.4,9.1-6.6,14.7c-0.3,11.6,8.9,21.4,20.5,21.7c11.6,0.3,21.4-8.9,21.7-20.5c0.3-11.6-8.9-21.4-20.5-21.7
				C163.6,54.1,163.4,54.1,163.2,54.1z M163.9,90.9c-0.1,0-0.3,0-0.4,0c-3.2-0.1-6.2-1.2-8.7-3.1c-0.3-0.2-0.5-0.6-0.5-0.9
				c0-0.4,0.1-0.7,0.4-1l19.6-18.5c0.3-0.3,0.6-0.4,1-0.3c0.4,0,0.7,0.2,0.9,0.5c1.8,2.6,2.7,5.7,2.6,8.9
				C178.6,84.5,172,90.9,163.9,90.9z M163.6,88.4c6.8,0.2,12.5-5.2,12.7-12c0.1-2.1-0.4-4.2-1.4-6.1l-17.3,16.4
				C159.4,87.7,161.4,88.3,163.6,88.4L163.6,88.4z M151.3,83.5c0,0-0.1,0-0.1,0c-0.4,0-0.7-0.2-0.9-0.5c-1.8-2.6-2.7-5.7-2.6-8.9
				c0.1-4,1.8-7.7,4.7-10.4c2.9-2.7,6.7-4.2,10.7-4.1c3.2,0.1,6.2,1.2,8.7,3.1c0.3,0.2,0.5,0.6,0.5,0.9c0,0.4-0.1,0.7-0.4,1
				l-19.6,18.5C152,83.4,151.6,83.5,151.3,83.5z M162.6,62.1c-3.2,0-6.2,1.2-8.5,3.4c-2.4,2.3-3.8,5.4-3.9,8.7
				c-0.1,2.1,0.4,4.2,1.4,6.1l17.3-16.4c-1.8-1.1-3.8-1.7-6-1.7C162.8,62.1,162.7,62.1,162.6,62.1z"/>
		</g>
	</g>
	<g>
		<g>
			<g>
				<path class="st3" d="M222.5,148.3c1.1,2.9,3.3,5.2,6.1,6.4c1.4,0.6,3,0.7,4.5,0.6c0.7-0.1,1.4,0,2,0.3c1.9,0.7,3,2.7,2.7,4.7
					c-0.4,2.7-3,4.4-5.5,3.7c-0.8-0.2-1.4-0.6-2-1.1c-0.3-0.2-0.7-0.8-0.7-0.8c-2.7-3.1-7.4-4.2-11.3-2.7L222.5,148.3z"/>
				<path class="st0" d="M233.5,165.4c-0.5,0-0.9-0.1-1.4-0.2c-0.9-0.2-1.8-0.7-2.5-1.4c-0.3-0.3-0.6-0.7-0.8-0.9
					c-2.4-2.7-6.5-3.7-9.8-2.3c-0.7,0.3-1.4-0.1-1.7-0.7c-0.3-0.7,0.1-1.4,0.7-1.7c4.3-1.7,9.7-0.4,12.7,3.1c0,0,0.1,0.1,0.1,0.1
					c0.2,0.2,0.4,0.6,0.5,0.6c0.4,0.4,0.9,0.6,1.4,0.8c0.9,0.2,1.8,0.1,2.6-0.4c0.8-0.5,1.2-1.3,1.4-2.2c0.2-1.4-0.6-2.8-2-3.4
					c-0.5-0.2-1-0.3-1.5-0.2c-2,0.2-3.7-0.1-5.1-0.7c-3.1-1.3-5.6-4-6.8-7.1c-0.2-0.7,0.1-1.4,0.7-1.6c0.7-0.2,1.4,0.1,1.6,0.7
					c1,2.5,3,4.7,5.4,5.7c1,0.4,2.3,0.6,3.9,0.5c0.9-0.1,1.8,0.1,2.6,0.4c2.4,1,3.9,3.5,3.5,6.1c-0.2,1.6-1.1,3.1-2.5,4
					C235.7,165.1,234.6,165.4,233.5,165.4z"/>
			</g>
			<g>
				<path class="st3" d="M208.9,128c6.2,1.4,10.8-3,13.2-5.9c0.8-1,1.4-2,2-3.1c1.2-2.2,4-3.2,6.5-1.8c1.7,0.9,2.6,2.8,2.4,4.7
					c-0.3,2-1.7,3.5-3.4,3.9c0,0-12.8,4.8-14.7,10.8L208.9,128z"/>
				<path class="st0" d="M214.7,137.8c-0.1,0-0.3,0-0.4-0.1c-0.7-0.2-1-0.9-0.8-1.6c2.1-6.4,14.9-11.4,15.5-11.6c0,0,0.1,0,0.1,0
					c1.3-0.4,2.3-1.5,2.5-2.9c0.2-1.4-0.5-2.8-1.7-3.4c-0.8-0.5-1.8-0.6-2.7-0.3c-0.9,0.3-1.6,0.8-2,1.6c-0.6,1.1-1.2,2.2-2.1,3.3
					c-2.4,3.1-7.6,7.9-14.4,6.4c-0.7-0.2-1.1-0.8-1-1.5c0.2-0.7,0.8-1.1,1.5-1c5.5,1.3,9.8-2.9,11.9-5.5c0.7-0.9,1.3-1.9,1.8-2.9
					c0.8-1.4,2-2.4,3.5-2.8c1.6-0.5,3.2-0.3,4.7,0.5c2.1,1.2,3.3,3.6,3,6c-0.3,2.4-2,4.3-4.2,5c-3.4,1.3-12.5,5.6-13.9,10
					C215.7,137.5,215.2,137.8,214.7,137.8z"/>
			</g>
			<g>
				<g>
					<path class="st3" d="M196.4,119.8c2.1-2.5,2.7-5.8,1.8-8.9c-0.2-0.9-0.1-1.9,0.3-2.8c1-2.6,4-3.9,6.6-2.9c2.6,1,3.9,4,2.9,6.6
						c-0.2,0.6-0.5,1.1-0.9,1.5c-2.5,2.8-3.5,5.9-2.6,9.4L196.4,119.8z"/>
					<path class="st0" d="M204.5,124c-0.6,0-1.1-0.4-1.2-0.9c-1-3.8-0.1-7.3,2.9-10.5c0.3-0.3,0.5-0.7,0.7-1.1c0.4-0.9,0.4-2,0-2.9
						c-0.4-0.9-1.2-1.7-2.1-2c-2-0.8-4.2,0.2-5,2.1c-0.3,0.7-0.3,1.4-0.2,2c1,3.7,0.3,7.3-2.1,10c-0.5,0.5-1.3,0.6-1.8,0.1
						c-0.5-0.5-0.6-1.3-0.1-1.8c1.8-2,2.3-4.9,1.5-7.7c0,0,0-0.1,0-0.1c-0.2-1.2-0.1-2.4,0.3-3.5c1.3-3.3,5-4.9,8.3-3.6
						c1.6,0.6,2.8,1.8,3.5,3.4c0.7,1.6,0.7,3.3,0.1,4.9c-0.3,0.7-0.7,1.3-1.1,1.9c-2.3,2.6-3.1,5.2-2.3,8.2c0.2,0.7-0.2,1.4-0.9,1.6
						C204.7,123.9,204.6,124,204.5,124z"/>
				</g>
			</g>
			<g>
				
					<ellipse transform="matrix(0.2461 -0.9692 0.9692 0.2461 3.2195 296.8964)" class="st2" cx="192.5" cy="146.4" rx="31.3" ry="31.3"/>
				<path class="st0" d="M192.5,178.9c-2.7,0-5.4-0.3-8.1-1c-8.4-2.1-15.5-7.4-20-14.9c-4.4-7.5-5.7-16.2-3.6-24.6
					c4.4-17.4,22.2-28,39.6-23.5c17.4,4.4,28,22.2,23.6,39.5c-2.1,8.4-7.4,15.5-14.9,20C204,177.4,198.3,178.9,192.5,178.9z
					 M192.5,116.4c-13.4,0-25.6,9.1-29.1,22.6c-2,7.8-0.8,15.8,3.3,22.7c4.1,6.9,10.6,11.8,18.4,13.7c7.8,2,15.8,0.8,22.7-3.3
					c6.9-4.1,11.8-10.6,13.7-18.4c4.1-16-5.7-32.4-21.7-36.5C197.4,116.7,194.9,116.4,192.5,116.4z"/>
			</g>
			<g>
				<path class="st2" d="M199.9,136.1c0.4-1.6,1.4-2.9,2.8-3.7c1.3-0.8,3-1.1,4.6-0.7c1.6,0.4,2.9,1.4,3.7,2.8
					c0.8,1.3,1.1,3,0.7,4.6c-0.4,1.6-1.4,2.9-2.8,3.7c-1.3,0.8-3,1.1-4.6,0.7L199.9,136.1z"/>
				<path class="st0" d="M205.8,144.9c-0.6,0-1.2-0.1-1.8-0.2c-0.7-0.2-1.1-0.9-0.9-1.5c0.2-0.7,0.9-1.1,1.5-0.9
					c1.2,0.3,2.5,0.1,3.6-0.5c1.1-0.7,1.9-1.7,2.2-2.9c0.3-1.2,0.1-2.5-0.5-3.6c-0.7-1.1-1.7-1.9-2.9-2.2c-1.2-0.3-2.5-0.1-3.6,0.5
					c-1.1,0.7-1.9,1.7-2.2,2.9c-0.2,0.7-0.9,1.1-1.5,0.9c-0.7-0.2-1.1-0.9-0.9-1.5c0.5-1.9,1.7-3.5,3.3-4.5c1.7-1,3.6-1.3,5.5-0.8
					c1.9,0.5,3.5,1.7,4.5,3.3c1,1.7,1.3,3.6,0.8,5.5c-0.5,1.9-1.7,3.5-3.3,4.5C208.3,144.6,207.1,144.9,205.8,144.9z"/>
			</g>
			<g>
				<path class="st2" d="M181.2,156c-1.2-0.3-2.1-1.1-2.7-2c-0.6-1-0.8-2.2-0.5-3.4c0.3-1.2,1.1-2.1,2-2.7c1-0.6,2.2-0.8,3.4-0.5
					c1.2,0.3,2.1,1.1,2.7,2c0.6,1,0.8,2.2,0.5,3.4L181.2,156z"/>
				<path class="st0" d="M181.2,157.3c-0.1,0-0.2,0-0.3,0c-1.5-0.4-2.7-1.3-3.5-2.6c-0.8-1.3-1-2.9-0.6-4.3c0.4-1.5,1.3-2.7,2.6-3.5
					c1.3-0.8,2.9-1,4.3-0.6c1.5,0.4,2.7,1.3,3.5,2.6c0.8,1.3,1,2.9,0.6,4.3c-0.2,0.7-0.9,1.1-1.5,0.9c-0.7-0.2-1.1-0.9-0.9-1.5
					c0.2-0.8,0.1-1.7-0.3-2.4c-0.4-0.7-1.1-1.2-2-1.5c-0.8-0.2-1.7-0.1-2.4,0.3c-0.7,0.4-1.2,1.1-1.5,1.9c-0.2,0.8-0.1,1.7,0.3,2.4
					c0.4,0.7,1.1,1.2,2,1.5c0.7,0.2,1.1,0.9,0.9,1.5C182.3,156.9,181.8,157.3,181.2,157.3z"/>
			</g>
			<g>
				<path class="st2" d="M210.4,162.2c0,0.1,0,0.2-0.1,0.2c-0.8,3.1-0.8,6.8-0.2,10c0.4,1.8,1,3.6,2,5.1c0.7,1,1.8,1.7,2.9,2.2
					c3,1.3,4.5,4.9,3,8.2c-1,2.2-3.3,3.5-5.7,3.4c-3.9-0.2-6.5-3.9-5.6-7.5c0.2-0.6,0.3-1,0.2-1.8c-0.1-2-0.6-4.1-1.3-5.9
					c-1.1-3-3.2-5.6-5.8-7.3L210.4,162.2z"/>
				<path class="st0" d="M212.7,192.7c-0.1,0-0.3,0-0.4,0c-2.2-0.1-4.2-1.2-5.5-3c-1.3-1.8-1.7-4-1.2-6.1c0.2-0.6,0.2-0.8,0.2-1.4
					c-0.1-1.8-0.5-3.7-1.2-5.6c-1-2.7-2.9-5.1-5.3-6.7c-0.6-0.4-0.8-1.2-0.4-1.8c0.4-0.6,1.2-0.8,1.8-0.4c2.9,1.9,5.1,4.7,6.3,7.9
					c0.8,2.1,1.2,4.3,1.4,6.3c0.1,0.9-0.1,1.5-0.3,2.2c-0.3,1.4-0.1,2.8,0.8,4c0.9,1.2,2.2,1.9,3.6,1.9c1.9,0.1,3.7-1,4.5-2.7
					c0.6-1.2,0.6-2.5,0.2-3.8c-0.5-1.2-1.4-2.2-2.5-2.7c-1.5-0.7-2.7-1.6-3.5-2.7c-1-1.4-1.8-3.3-2.2-5.6c-0.7-3.5-0.6-7.3,0.2-10.6
					l0.1-0.2c0.2-0.7,0.9-1.1,1.5-0.9c0.7,0.2,1.1,0.9,0.9,1.5l-0.1,0.2c-0.7,2.8-0.8,6.4-0.2,9.4c0.4,1.9,1,3.5,1.8,4.6
					c0.5,0.7,1.3,1.3,2.4,1.8c1.8,0.8,3.2,2.3,3.9,4.1c0.7,1.9,0.6,3.9-0.3,5.7C218.1,191,215.5,192.7,212.7,192.7z"/>
			</g>
			<g>
				<path class="st2" d="M176.8,132.1c1.3-3.4,1.2-7.3-0.3-10.6c-0.8-1.7-2.1-3-3.6-4.1c-0.6-0.5-1.2-1.1-1.6-1.9
					c-1.1-2.1-0.5-4.8,1.3-6.4c2.5-2.1,6.1-1.6,7.9,1c0.5,0.8,0.8,1.6,0.9,2.5c0,0.4,0,1.3,0,1.3c0,4.9,3.3,9.7,7.9,11.4
					L176.8,132.1z"/>
				<path class="st0" d="M176.8,133.4c-0.2,0-0.3,0-0.5-0.1c-0.7-0.3-1-1-0.7-1.6c1.2-3.1,1.1-6.7-0.3-9.6c-0.6-1.3-1.6-2.4-3.2-3.6
					c-0.8-0.6-1.5-1.4-1.9-2.3c-1.3-2.7-0.7-6,1.6-7.9c1.4-1.2,3.3-1.8,5.2-1.6c1.9,0.2,3.5,1.3,4.6,2.8c0.6,0.9,1,2,1.1,3.1
					c0,0.5,0,1.2,0,1.4c0,4.4,3,8.6,7.1,10.2c0.7,0.2,1,1,0.8,1.6c-0.2,0.7-1,1-1.6,0.8c-5.1-1.9-8.8-7.2-8.8-12.6c0,0,0-0.1,0-0.1
					c0-0.4,0.1-0.9,0-1c-0.1-0.7-0.3-1.3-0.7-1.9c-0.6-1-1.7-1.6-2.8-1.7c-1.2-0.2-2.3,0.2-3.2,1c-1.4,1.2-1.8,3.2-1,4.9
					c0.3,0.6,0.7,1.1,1.2,1.4c1.9,1.4,3.2,2.9,4,4.6c1.7,3.6,1.8,7.8,0.4,11.6C177.8,133.1,177.4,133.4,176.8,133.4z"/>
			</g>
			<g>
				<g>
					<path class="st3" d="M163.6,146.3c-2.5-2-5.9-2.5-9-1.5c-0.9,0.2-1.9,0.2-2.8-0.2c-2.7-0.9-4-3.9-3.1-6.5
						c0.9-2.6,3.9-4,6.5-3.1c0.6,0.2,1.1,0.5,1.5,0.9c2.9,2.4,6,3.3,9.4,2.2L163.6,146.3z"/>
					<path class="st0" d="M163.6,147.6c-0.3,0-0.6-0.1-0.8-0.3c-2.1-1.7-4.9-2.2-7.8-1.3c0,0-0.1,0-0.1,0c-1.2,0.3-2.4,0.2-3.5-0.2
						c-1.6-0.6-2.9-1.7-3.6-3.3c-0.7-1.5-0.8-3.3-0.2-4.9c1.2-3.3,4.8-5,8.1-3.9c0.7,0.2,1.3,0.6,1.9,1.1c2.7,2.2,5.3,2.9,8.3,2
						c0.7-0.2,1.4,0.2,1.6,0.8c0.2,0.7-0.2,1.4-0.8,1.6c-3.8,1.2-7.3,0.3-10.6-2.5c-0.3-0.3-0.7-0.5-1.1-0.6c-2-0.7-4.2,0.3-4.9,2.3
						c-0.3,1-0.3,2,0.1,2.9c0.4,0.9,1.2,1.6,2.2,2c0.7,0.2,1.4,0.3,2.1,0.1c3.6-1.1,7.3-0.5,10.1,1.7c0.5,0.4,0.6,1.2,0.2,1.8
						C164.4,147.4,164,147.6,163.6,147.6z"/>
				</g>
			</g>
		</g>
		<g>
			<g>
				<polygon class="st4" points="183.7,161.7 148.8,161.7 131.3,191.4 148.8,221.1 183.7,221.1 201.2,191.4 				"/>
				<path class="st0" d="M183.7,222.4h-35c-0.5,0-0.9-0.2-1.1-0.6L130.2,192c-0.2-0.4-0.2-0.9,0-1.3l17.5-29.7
					c0.2-0.4,0.6-0.6,1.1-0.6h35c0.5,0,0.9,0.2,1.1,0.6l17.5,29.7c0.2,0.4,0.2,0.9,0,1.3l-17.5,29.7
					C184.6,222.1,184.2,222.4,183.7,222.4z M149.5,219.8H183l16.7-28.4L183,162.9h-33.5l-16.7,28.4L149.5,219.8z"/>
			</g>
			<g>
				<g>
					<g>
						<path class="st2" d="M181.3,178c0-1.8-1.4-3.3-3.2-3.3c-1.8,0-3.3,1.4-3.3,3.2v-4.7c0-1.8-1.4-3.3-3.2-3.3
							c-1.8,0-3.3,1.4-3.3,3.2v-1.2c0-1.8-1.4-3.3-3.2-3.3c-1.8,0-3.3,1.4-3.3,3.2v4.1c0-1.8-1.5-3.2-3.3-3.2
							c-1.8,0-3.2,1.6-3.2,3.3v21.3c0,0-4-8.5-4-8.5c-0.8-1.6-2.7-2.4-4.3-1.7c-1.7,0.7-2.4,2.7-1.6,4.3c0,0,3.2,10.7,8.3,17.2
							c0,0,2.3,2.4,3.7,3.3c2.4,1.6,5.4,2.5,8.5,2.5c8.5,0,15.3-7.1,15.3-15.6V178z"/>
						<path class="st0" d="M165.9,215.6c-3.2,0-6.4-0.9-9.1-2.7c-1.5-1-3.8-3.4-3.9-3.5c0,0-0.1-0.1-0.1-0.1
							c-5-6.4-8.2-16.5-8.5-17.6c-0.5-1.1-0.5-2.3-0.1-3.4c0.4-1.1,1.3-2,2.4-2.5c2.2-1,4.9,0.1,5.9,2.3l1.6,3.4l0-15.6
							c0-2.5,2-4.6,4.4-4.6c0.7,0,1.4,0.1,2.1,0.4v-0.1c0-1.2,0.5-2.3,1.3-3.2c0.9-0.9,2-1.3,3.3-1.3c1.6,0,2.9,0.9,3.7,2.2
							c0.8-0.6,1.8-0.9,2.8-0.8c2.4,0.1,4.4,2.1,4.4,4.6v0.7c0.6-0.3,1.3-0.5,2.1-0.4c2.4,0.1,4.4,2.1,4.4,4.6v20.7
							C182.6,208,175.1,215.5,165.9,215.6C165.9,215.6,165.9,215.6,165.9,215.6z M154.7,207.7c0.6,0.7,2.4,2.4,3.4,3.1
							c2.3,1.5,5,2.3,7.8,2.3c7.8,0,14.1-6.5,14.1-14.3V178c0-1.1-0.9-2.1-1.9-2.1c-0.5,0-1.1,0.2-1.4,0.6c-0.4,0.4-0.6,0.9-0.6,1.4
							c0,0.7-0.6,1.3-1.3,1.3c-0.7,0-1.3-0.6-1.3-1.3v-4.7c0-1.1-0.9-2.1-1.9-2.1c-0.5,0-1.1,0.2-1.4,0.6c-0.4,0.4-0.6,0.9-0.6,1.4
							c0,0.7-0.6,1.3-1.3,1.3c-0.7,0-1.3-0.6-1.3-1.3v-1.2c0-1.1-0.9-2.1-1.9-2.1c-0.5,0-1.1,0.2-1.4,0.6c-0.4,0.4-0.6,0.9-0.6,1.4
							v4.1c0,0.7-0.6,1.3-1.3,1.3c-0.7,0-1.3-0.6-1.3-1.3c0-0.5-0.2-1-0.6-1.4c-0.4-0.4-0.9-0.6-1.4-0.6c-1.1,0-1.9,1-1.9,2.1v21.3
							c0,0.6-0.4,1.1-1,1.2c-0.6,0.1-1.2-0.2-1.4-0.7l-4-8.5c-0.5-1-1.7-1.5-2.6-1.1c-0.5,0.2-0.9,0.6-1.1,1.1
							c-0.2,0.5-0.2,1,0.1,1.5c0,0.1,0,0.1,0.1,0.2C146.7,191,149.9,201.4,154.7,207.7z"/>
					</g>
					<g>
						<path class="st2" d="M161.9,175.3v13V175.3z"/>
						<path class="st0" d="M161.9,189.5c-0.7,0-1.3-0.6-1.3-1.3v-13c0-0.7,0.6-1.3,1.3-1.3s1.3,0.6,1.3,1.3v13
							C163.2,189,162.6,189.5,161.9,189.5z"/>
					</g>
					<g>
						<path class="st2" d="M168.4,172.6v15.7V172.6z"/>
						<path class="st0" d="M168.4,189.5c-0.7,0-1.3-0.6-1.3-1.3v-15.7c0-0.7,0.6-1.3,1.3-1.3c0.7,0,1.3,0.6,1.3,1.3v15.7
							C169.6,189,169.1,189.5,168.4,189.5z"/>
					</g>
					<g>
						<path class="st2" d="M174.8,172.9v15.4V172.9z"/>
						<path class="st0" d="M174.8,189.5c-0.7,0-1.3-0.6-1.3-1.3v-15.4c0-0.7,0.6-1.3,1.3-1.3c0.7,0,1.3,0.6,1.3,1.3v15.4
							C176.1,189,175.5,189.5,174.8,189.5z"/>
					</g>
				</g>
			</g>
		</g>
	</g>
</g>
</svg>
