<?xml version="1.0" encoding="utf-8"?>
<!-- Generator: Adobe Illustrator 22.1.0, SVG Export Plug-In . SVG Version: 6.00 Build 0)  -->
<svg version="1.1" id="Layer_1" xmlns="http://www.w3.org/2000/svg" xmlns:xlink="http://www.w3.org/1999/xlink" x="0px" y="0px"
	 viewBox="0 0 251 245" style="enable-background:new 0 0 251 245;" xml:space="preserve">
<style type="text/css">
	.st0{fill:#3C3575;}
	.st1{fill:#D3C4FF;}
	.st2{fill:#8A7AFF;}
	.st3{fill:#FFCE3B;}
	.st4{fill:#FFFFFF;}
</style>
<g>
	<g>
		<g>
			<g>
				<path class="st0" d="M17.2,174.4c-0.5,0-0.9-0.3-1.1-0.7c-1.9-4.2-3.7-8.5-5.1-12.9c-0.2-0.6,0.1-1.3,0.8-1.5
					c0.6-0.2,1.3,0.1,1.5,0.8c1.4,4.3,3.1,8.5,5,12.6c0.3,0.6,0,1.3-0.6,1.6C17.5,174.4,17.4,174.4,17.2,174.4z M8.6,148.4
					c-0.6,0-1.1-0.4-1.2-1c-0.9-4.5-1.6-9.1-2-13.7c-0.1-0.7,0.4-1.3,1.1-1.3c0.7-0.1,1.3,0.4,1.3,1.1c0.4,4.5,1.1,9,2,13.4
					c0.1,0.7-0.3,1.3-0.9,1.4C8.7,148.4,8.6,148.4,8.6,148.4z M6.1,121.1c-0.7,0-1.2-0.6-1.2-1.3c0.1-3.1,0.3-6.2,0.6-9.3
					c0.2-1.5,0.3-3,0.6-4.5c0.1-0.7,0.7-1.1,1.4-1c0.7,0.1,1.1,0.7,1,1.4c-0.2,1.5-0.4,3-0.5,4.4c-0.3,3-0.5,6.1-0.6,9.1
					C7.3,120.6,6.8,121.1,6.1,121.1z M10,94c-0.1,0-0.2,0-0.3,0c-0.7-0.2-1-0.8-0.9-1.5c1.2-4.5,2.6-8.9,4.3-13.2
					c0.2-0.6,0.9-0.9,1.6-0.7c0.6,0.2,0.9,0.9,0.7,1.6c-1.6,4.2-3,8.5-4.2,12.9C11,93.7,10.5,94,10,94z M19.9,68.5
					c-0.2,0-0.4,0-0.6-0.1c-0.6-0.3-0.8-1.1-0.5-1.6c2.2-4.1,4.6-8.1,7.2-11.8c0.4-0.6,1.1-0.7,1.7-0.3c0.6,0.4,0.7,1.1,0.3,1.7
					c-2.6,3.7-4.9,7.6-7,11.6C20.8,68.3,20.3,68.5,19.9,68.5z M35.4,46c-0.3,0-0.6-0.1-0.8-0.3c-0.5-0.4-0.6-1.2-0.1-1.7
					c3-3.5,6.3-6.8,9.7-9.9c0.5-0.5,1.3-0.4,1.7,0.1c0.5,0.5,0.4,1.3-0.1,1.7c-3.3,3-6.5,6.3-9.5,9.7C36.1,45.8,35.8,46,35.4,46z
					 M55.7,27.5c-0.4,0-0.8-0.2-1-0.5c-0.4-0.5-0.3-1.3,0.3-1.7c3.7-2.7,7.7-5.2,11.7-7.4c0.6-0.3,1.3-0.1,1.7,0.5
					c0.3,0.6,0.1,1.3-0.5,1.7c-3.9,2.2-7.8,4.6-11.5,7.3C56.2,27.5,55.9,27.5,55.7,27.5z M79.6,14.2c-0.5,0-0.9-0.3-1.1-0.8
					c-0.3-0.6,0-1.3,0.7-1.6c4.3-1.8,8.6-3.3,13.1-4.6c0.6-0.2,1.3,0.2,1.5,0.8c0.2,0.6-0.2,1.3-0.8,1.5c-4.3,1.2-8.6,2.7-12.8,4.5
					C79.9,14.2,79.7,14.2,79.6,14.2z M146.9,7.2c-0.1,0-0.1,0-0.2,0c-3.1-0.6-6.2-1-9.4-1.3c-1.4-0.1-2.7-0.3-4.1-0.4
					c-0.7,0-1.2-0.6-1.1-1.3c0-0.7,0.6-1.2,1.3-1.1c1.4,0.1,2.8,0.2,4.2,0.4c3.2,0.3,6.4,0.8,9.6,1.4c0.7,0.1,1.1,0.8,1,1.4
					C147.9,6.8,147.4,7.2,146.9,7.2z M105.9,6.7c-0.6,0-1.1-0.4-1.2-1c-0.1-0.7,0.3-1.3,1-1.4c4.5-0.7,9.2-1.2,13.8-1.4
					c0.7,0,1.2,0.5,1.3,1.2c0,0.7-0.5,1.2-1.2,1.3c-4.5,0.2-9,0.7-13.5,1.4C106,6.7,106,6.7,105.9,6.7z"/>
			</g>
			<g>
				<path class="st0" d="M125.3,243.2c-1.3,0-2.6,0-3.9-0.1c-0.7,0-1.2-0.6-1.2-1.3c0-0.7,0.6-1.2,1.3-1.2c4.5,0.1,9.1,0,13.6-0.3
					c0.7-0.1,1.3,0.4,1.3,1.1c0.1,0.7-0.4,1.3-1.1,1.3C131.9,243.1,128.6,243.2,125.3,243.2z M107.7,242c-0.1,0-0.1,0-0.2,0
					c-4.6-0.7-9.1-1.6-13.6-2.8c-0.7-0.2-1-0.8-0.9-1.5c0.2-0.6,0.8-1,1.5-0.9c4.3,1.2,8.8,2.1,13.3,2.7c0.7,0.1,1.1,0.7,1,1.4
					C108.9,241.5,108.3,242,107.7,242z M148.7,240.9c-0.6,0-1.1-0.4-1.2-1c-0.1-0.7,0.3-1.3,1-1.4c4.4-0.9,8.8-2,13.1-3.4
					c0.6-0.2,1.3,0.1,1.5,0.8c0.2,0.6-0.1,1.3-0.8,1.5c-4.4,1.4-8.9,2.6-13.4,3.5C148.8,240.9,148.8,240.9,148.7,240.9z M81.3,234.9
					c-0.1,0-0.3,0-0.4-0.1c-4.3-1.7-8.5-3.7-12.6-5.8c-0.6-0.3-0.8-1.1-0.5-1.6c0.3-0.6,1.1-0.8,1.6-0.5c4,2.1,8.1,4.1,12.3,5.7
					c0.6,0.2,0.9,1,0.7,1.6C82.2,234.6,81.8,234.9,81.3,234.9z M174.7,232.4c-0.5,0-0.9-0.3-1.1-0.7c-0.3-0.6,0-1.3,0.6-1.6
					c4.1-1.9,8.1-4,12-6.4c0.6-0.3,1.3-0.2,1.7,0.4c0.3,0.6,0.2,1.3-0.4,1.7c-3.9,2.4-8.1,4.6-12.2,6.5
					C175,232.4,174.9,232.4,174.7,232.4z M57.2,221.9c-0.2,0-0.5-0.1-0.7-0.2c-3.8-2.6-7.4-5.5-10.9-8.6c-0.5-0.4-0.6-1.2-0.1-1.7
					c0.4-0.5,1.2-0.6,1.7-0.1c3.4,3,7,5.8,10.7,8.4c0.6,0.4,0.7,1.1,0.3,1.7C57.9,221.8,57.5,221.9,57.2,221.9z M198.1,218.2
					c-0.4,0-0.7-0.2-1-0.5c-0.4-0.5-0.3-1.3,0.2-1.7c3.6-2.8,7-5.8,10.2-8.9c0.5-0.5,1.3-0.5,1.7,0c0.5,0.5,0.5,1.3,0,1.7
					c-3.3,3.2-6.8,6.3-10.4,9.1C198.6,218.2,198.4,218.2,198.1,218.2z M217.7,199.1c-0.3,0-0.5-0.1-0.8-0.3
					c-0.5-0.4-0.6-1.2-0.2-1.7c2.8-3.5,5.5-7.2,7.9-11c0.4-0.6,1.1-0.7,1.7-0.4c0.6,0.4,0.7,1.1,0.4,1.7c-2.5,3.9-5.2,7.7-8.1,11.2
					C218.4,198.9,218,199.1,217.7,199.1z M232.4,176c-0.2,0-0.4,0-0.5-0.1c-0.6-0.3-0.9-1-0.6-1.6c2-4.1,3.7-8.3,5.2-12.5
					c0.2-0.6,0.9-1,1.6-0.8c0.6,0.2,1,0.9,0.8,1.6c-1.5,4.4-3.3,8.7-5.3,12.8C233.2,175.7,232.8,176,232.4,176z M241.3,150.1
					c-0.1,0-0.2,0-0.3,0c-0.7-0.1-1.1-0.8-0.9-1.5c1-4.4,1.7-8.9,2.2-13.4c0.1-0.7,0.7-1.2,1.3-1.1c0.7,0.1,1.2,0.7,1.1,1.3
					c-0.5,4.6-1.2,9.2-2.2,13.7C242.4,149.7,241.9,150.1,241.3,150.1z M244.2,122.9c-0.7,0-1.2-0.5-1.2-1.2c0-4.5-0.4-9.1-0.9-13.5
					c-0.1-0.7,0.4-1.3,1.1-1.4c0.7-0.1,1.3,0.4,1.4,1.1c0.6,4.6,0.9,9.2,0.9,13.8C245.4,122.3,244.9,122.9,244.2,122.9
					C244.2,122.9,244.2,122.9,244.2,122.9z M240.7,95.7c-0.5,0-1-0.4-1.2-0.9c-1.1-4.4-2.4-8.7-4-13c-0.2-0.6,0.1-1.3,0.7-1.6
					c0.6-0.2,1.3,0.1,1.6,0.7c1.6,4.3,3,8.8,4.1,13.2c0.2,0.7-0.2,1.3-0.9,1.5C240.9,95.7,240.8,95.7,240.7,95.7z"/>
			</g>
		</g>
		<g>
			<circle class="st1" cx="125.1" cy="123" r="87.6"/>
		</g>
	</g>
	<g>
		<g>
			<path class="st2" d="M155.5,55.8l7.3-24.1c0.8-2.6-0.7-5.3-3.3-6c-9.9-2.6-26.8-3.6-36.7-2.3c-2.3,0.3-3.9,2.4-3.5,4.7l4.3,27.1
				c0.3,1.5,0.3,3,0.2,4.5c-0.2,1.5-0.4,3.1-0.6,4.1c-2,8.4-4.3,15.2-6.5,24.8c-0.2,0.9-3.6,17.7-3.5,25.1c0.1,3.9,5.6,4.4,6.5,0.5
				c1.6-7.2,3.1-16.6,5.2-16.9c1.3-0.2-2.8,20.4-3,28.9c-0.1,4.2,6.1,5.7,7,0.9c1.4-7.9,3-28.5,4.6-28.4c1.3,0.1-1,23-1,32.1
				c0,5.6,7.2,5.3,7.6,1.2c0.9-9.1,0.5-32.2,1.7-32.2c1.1,0,1.3,18.4,2.4,26.6c0.6,5.1,7.9,4.5,7.8-0.2c-0.2-8-1.2-24.4-0.6-28.6
				c0.2-1.5,0.9-9.9,1.3-10c1.7-0.4,3.1,9.6,6.3,15.2c0.9,1.6,2.2,2.3,3.5,2.4c2.2,0.2,3.7-1.9,3.1-4.6c-1-4.5-3-14.2-4.1-17.9
				c-2.1-6.9-4.7-12.8-6.1-17.6C154.4,62.1,154.5,58.8,155.5,55.8L155.5,55.8z"/>
			<path class="st0" d="M136.4,136.3c-0.1,0-0.2,0-0.3,0c-2.4-0.1-4.9-1.9-4.9-5.4c0-3.6,0.4-9.4,0.7-15c0.1-2.1,0.3-4.4,0.4-6.6
				c-0.3,2.4-0.6,4.8-0.9,6.9c-0.5,4.3-1,8.4-1.5,11.1c-0.5,3-2.8,4.2-4.8,4c-2.3-0.2-4.6-2.1-4.6-5.1c0.1-4.1,1.1-10.9,1.9-16.9
				c0.3-2.4,0.7-5,1-7.2c-0.7,2.6-1.4,6.1-2,8.5c-0.3,1.3-0.5,2.6-0.8,3.9c-0.6,2.8-2.9,3.8-4.9,3.6c-2.3-0.2-3.9-2-4-4.4
				c-0.1-7.9,3.4-25.2,3.5-25.4c1.2-5.3,2.5-9.8,3.7-14.1c1-3.6,2-7,2.9-10.7c0.2-0.9,0.5-2.4,0.6-3.9c0.1-1.4,0.1-2.8-0.2-4.2
				l-4.3-27.2c-0.2-1.4,0.1-2.9,1-4c0.9-1.2,2.1-1.9,3.5-2.1c10.4-1.3,27.4-0.2,37.2,2.4c1.6,0.4,2.9,1.4,3.7,2.9
				c0.8,1.4,1,3.1,0.5,4.7l-7.3,24.1c-0.9,2.9-1,5.9-0.2,8.7c0.7,2.4,1.7,5.1,2.7,8c1.1,2.9,2.3,6.2,3.3,9.6c0.8,2.6,2,8.1,3.1,13
				c0.4,1.9,0.8,3.7,1.1,5c0.4,1.8,0.1,3.5-1,4.7c-0.8,1-2.1,1.5-3.4,1.4c-1.9-0.1-3.4-1.2-4.5-3c-1.6-2.8-2.7-6.6-3.7-9.6
				c-0.3-1-0.6-2.1-0.9-3c-0.2,1.4-0.3,3.1-0.4,4.2c-0.1,1.3-0.2,2.4-0.3,2.8c-0.5,3,0,13,0.3,21.1c0.1,2.7,0.2,5.3,0.3,7.3
				c0.1,3.1-2.2,4.9-4.6,5c-2.5,0.2-5.2-1.3-5.6-4.6c-0.4-3.5-0.7-8.5-1-13.5c0,1,0,2-0.1,2.9c-0.1,6-0.3,12.2-0.6,16.1
				C141,134.5,138.9,136.3,136.4,136.3z M133.3,97.5c0.1,0,0.1,0,0.2,0c1.8,0.2,1.9,1.2,0.8,18.5c-0.4,5.6-0.7,11.3-0.7,14.8
				c0,2.1,1.3,2.9,2.6,3c1.2,0.1,2.5-0.6,2.6-1.9c0.4-3.8,0.5-9.9,0.6-15.9c0.1-4.2,0.2-8.3,0.3-11.3c0.2-4.5,0.5-6.1,2-6.1
				c1.7,0,1.9,1,2.6,14.1c0.3,5,0.6,10.1,1,13.6c0.3,2,1.8,2.6,3,2.5c1.1-0.1,2.4-0.8,2.4-2.5c-0.1-2-0.2-4.5-0.3-7.2
				c-0.4-8.6-0.8-18.3-0.3-21.5c0.1-0.4,0.2-1.5,0.3-2.7c0.8-7.8,0.9-8,2-8.3c2-0.5,2.8,2.1,4.2,6.6c0.9,2.9,2,6.6,3.5,9.1
				c0.6,1.1,1.5,1.7,2.5,1.8c0.7,0.1,1.1-0.3,1.4-0.5c0.5-0.6,0.7-1.5,0.4-2.5c-0.3-1.3-0.7-3.1-1.1-5c-1-4.6-2.2-10.2-3-12.8
				c-1-3.4-2.2-6.6-3.3-9.5c-1.1-2.9-2.1-5.7-2.8-8.1c-0.9-3.3-0.8-6.8,0.2-10.1l7.3-24.1c0.3-0.9,0.2-1.9-0.3-2.8
				c-0.5-0.8-1.3-1.5-2.2-1.7c-9.5-2.5-26.1-3.6-36.2-2.3c-0.8,0.1-1.4,0.5-1.9,1.1c-0.5,0.6-0.7,1.4-0.5,2.2l4.3,27.1
				c0.3,1.6,0.3,3.2,0.2,4.8c-0.2,1.6-0.4,3.2-0.7,4.3c-0.9,3.8-1.9,7.2-2.9,10.8c-1.2,4.3-2.5,8.7-3.7,14
				c-0.3,1.5-3.5,17.7-3.4,24.8c0,1.3,1,1.9,1.8,2c0.9,0.1,1.9-0.3,2.3-1.7c0.3-1.2,0.5-2.5,0.8-3.9c2-9.5,3.1-13.7,5.5-14
				c0.4,0,0.8,0.1,1.1,0.4c0.8,0.8,0.7,2.4-0.8,13.1c-0.9,5.9-1.8,12.7-1.9,16.6c0,1.6,1.2,2.5,2.4,2.7c0.5,0.1,1.9,0,2.2-2
				c0.5-2.6,0.9-6.7,1.5-11C130.9,100.1,131.5,97.5,133.3,97.5z"/>
		</g>
		<g>
			<path class="st0" d="M136.4,136.3c-0.1,0-0.2,0-0.3,0c-2.4-0.1-4.9-1.9-4.9-5.4c0-3.6,0.4-9.4,0.7-15c0.1-2.1,0.3-4.4,0.4-6.6
				c-0.3,2.4-0.6,4.8-0.9,6.9c-0.5,4.3-1,8.4-1.5,11.1c-0.5,3-2.8,4.2-4.8,4c-2.3-0.2-4.6-2.1-4.6-5.1c0.1-4.1,1.1-10.9,1.9-16.9
				c0.3-2.4,0.7-5,1-7.2c-0.7,2.6-1.4,6.1-2,8.5c-0.3,1.3-0.5,2.6-0.8,3.9c-0.6,2.8-2.9,3.8-4.9,3.6c-2.3-0.2-3.9-2-4-4.4
				c-0.1-7.9,3.4-25.2,3.5-25.4c1.2-5.3,2.5-9.8,3.7-14.1c1-3.6,2-7,2.9-10.7c0.2-0.9,0.5-2.4,0.6-3.9c0.1-1.4,0.1-2.8-0.2-4.2
				l-4.3-27.2c-0.2-1.4,0.1-2.9,1-4c0.9-1.2,2.1-1.9,3.5-2.1c10.4-1.3,27.4-0.2,37.2,2.4c1.6,0.4,2.9,1.4,3.7,2.9
				c0.8,1.4,1,3.1,0.5,4.7l-7.3,24.1c-0.9,2.9-1,5.9-0.2,8.7c0.7,2.4,1.7,5.1,2.7,8c1.1,2.9,2.3,6.2,3.3,9.6c0.8,2.6,2,8.1,3.1,13
				c0.4,1.9,0.8,3.7,1.1,5c0.4,1.8,0.1,3.5-1,4.7c-0.8,1-2.1,1.5-3.4,1.4c-1.9-0.1-3.4-1.2-4.5-3c-1.6-2.8-2.7-6.6-3.7-9.6
				c-0.3-1-0.6-2.1-0.9-3c-0.2,1.4-0.3,3.1-0.4,4.2c-0.1,1.3-0.2,2.4-0.3,2.8c-0.5,3,0,13,0.3,21.1c0.1,2.7,0.2,5.3,0.3,7.3
				c0.1,3.1-2.2,4.9-4.6,5c-2.5,0.2-5.2-1.3-5.6-4.6c-0.4-3.5-0.7-8.5-1-13.5c0,1,0,2-0.1,2.9c-0.1,6-0.3,12.2-0.6,16.1
				C141,134.5,138.9,136.3,136.4,136.3z M133.3,97.5c0.1,0,0.1,0,0.2,0c1.8,0.2,1.9,1.2,0.8,18.5c-0.4,5.6-0.7,11.3-0.7,14.8
				c0,2.1,1.3,2.9,2.6,3c1.2,0.1,2.5-0.6,2.6-1.9c0.4-3.8,0.5-9.9,0.6-15.9c0.1-4.2,0.2-8.3,0.3-11.3c0.2-4.5,0.5-6.1,2-6.1
				c1.7,0,1.9,1,2.6,14.1c0.3,5,0.6,10.1,1,13.6c0.3,2,1.8,2.6,3,2.5c1.1-0.1,2.4-0.8,2.4-2.5c-0.1-2-0.2-4.5-0.3-7.2
				c-0.4-8.6-0.8-18.3-0.3-21.5c0.1-0.4,0.2-1.5,0.3-2.7c0.8-7.8,0.9-8,2-8.3c2-0.5,2.8,2.1,4.2,6.6c0.9,2.9,2,6.6,3.5,9.1
				c0.6,1.1,1.5,1.7,2.5,1.8c0.7,0.1,1.1-0.3,1.4-0.5c0.5-0.6,0.7-1.5,0.4-2.5c-0.3-1.3-0.7-3.1-1.1-5c-1-4.6-2.2-10.2-3-12.8
				c-1-3.4-2.2-6.6-3.3-9.5c-1.1-2.9-2.1-5.7-2.8-8.1c-0.9-3.3-0.8-6.8,0.2-10.1l7.3-24.1c0.3-0.9,0.2-1.9-0.3-2.8
				c-0.5-0.8-1.3-1.5-2.2-1.7c-9.5-2.5-26.1-3.6-36.2-2.3c-0.8,0.1-1.4,0.5-1.9,1.1c-0.5,0.6-0.7,1.4-0.5,2.2l4.3,27.1
				c0.3,1.6,0.3,3.2,0.2,4.8c-0.2,1.6-0.4,3.2-0.7,4.3c-0.9,3.8-1.9,7.2-2.9,10.8c-1.2,4.3-2.5,8.7-3.7,14
				c-0.3,1.5-3.5,17.7-3.4,24.8c0,1.3,1,1.9,1.8,2c0.9,0.1,1.9-0.3,2.3-1.7c0.3-1.2,0.5-2.5,0.8-3.9c2-9.5,3.1-13.7,5.5-14
				c0.4,0,0.8,0.1,1.1,0.4c0.8,0.8,0.7,2.4-0.8,13.1c-0.9,5.9-1.8,12.7-1.9,16.6c0,1.6,1.2,2.5,2.4,2.7c0.5,0.1,1.9,0,2.2-2
				c0.5-2.6,0.9-6.7,1.5-11C130.9,100.1,131.5,97.5,133.3,97.5z"/>
		</g>
		<g>
			<path class="st2" d="M158.1,53.7l-20.5-14.6c-2.2-1.6-2.7-4.6-1-6.8c6.2-8.2,19-19.3,27.6-24.4c2-1.2,4.5-0.5,5.6,1.6L183,33.6
				c0.7,1.3,1.6,2.6,2.6,3.7c1,1.1,2.2,2.2,3,2.8c6.7,5.4,12.7,9.3,20.4,15.6c0.7,0.6,13.6,11.8,18.1,17.7c2.3,3.1-1.7,6.9-4.8,4.4
				c-5.6-4.7-12.6-11.3-14.5-10.1c-1.1,0.7,14.7,14.4,20,21c2.6,3.3-1.3,8.3-4.9,5c-5.9-5.4-19.8-20.7-21-19.6
				c-1,0.9,14.9,17.6,20.4,24.8c3.4,4.4-2.5,8.6-5.3,5.6c-6.3-6.7-20.1-25.2-21.1-24.4c-0.9,0.7,10.2,15.3,14.4,22.5
				c2.6,4.4-3.5,8.4-6.3,4.6c-4.7-6.5-14-20.1-17-22.9c-1.1-1-6.7-7.3-7.2-7.1c-1.6,0.7,3.4,9.5,4.3,15.8c0.3,1.9-0.4,3.2-1.3,4
				c-1.6,1.5-4.1,0.7-5.2-1.7c-2-4.2-6.3-13.1-7.6-16.7c-2.5-6.7-4.1-13-6-17.7C162.8,58,160.7,55.5,158.1,53.7L158.1,53.7z"/>
			<path class="st0" d="M206.9,109.9c-1.4,0-2.8-0.6-3.9-2c-1.2-1.6-2.6-3.7-4.2-5.9c-4.7-6.6-10.5-14.8-12.7-16.9
				c-0.4-0.3-1.1-1.1-2-2.1c-0.8-0.8-1.9-2-2.9-3c0.3,0.9,0.7,2,1.1,2.9c1.1,3,2.5,6.7,3,9.8c0.3,2-0.3,3.9-1.7,5.1
				c-1,0.9-2.3,1.2-3.5,1c-1.5-0.3-2.9-1.4-3.6-3.1c-0.6-1.2-1.3-2.9-2.2-4.7c-2.1-4.5-4.5-9.5-5.5-12.1c-1.3-3.4-2.3-6.7-3.3-9.7
				c-0.9-2.9-1.8-5.7-2.7-8c-1.1-2.7-3-5-5.5-6.7c0,0-20.6-14.6-20.6-14.6c-1.3-1-2.2-2.4-2.5-4c-0.2-1.6,0.2-3.2,1.2-4.5
				c6.1-8.1,18.9-19.4,27.9-24.7c1.2-0.7,2.7-0.9,4.1-0.5c1.4,0.4,2.5,1.3,3.2,2.6L184,33c0.7,1.3,1.5,2.4,2.5,3.4
				c1,1.1,2.2,2.1,2.9,2.7c3,2.4,5.8,4.5,8.8,6.7c3.6,2.7,7.3,5.4,11.6,8.9c0.1,0.1,13.6,11.6,18.3,17.9c1.4,1.9,1.2,4.3-0.5,5.9
				c-1.4,1.3-3.9,1.9-6.1,0.1c-1-0.8-2-1.7-3-2.6c-1.9-1.6-4.6-3.9-6.8-5.5c1.5,1.6,3.5,3.4,5.2,5.1c4.4,4.2,9.3,9,11.9,12.2
				c1.9,2.4,1.2,5.3-0.5,6.9c-1.5,1.4-4,1.9-6.2-0.2c-2-1.9-4.9-4.8-8-7.9c-1.5-1.5-3.2-3.3-4.9-5c1.5,1.7,3,3.4,4.4,5
				c3.7,4.2,7.5,8.6,9.7,11.4c2.2,2.8,1.3,5.8-0.5,7.3c-2.1,1.8-4.9,1.7-6.6-0.1c-2.6-2.8-6.5-7.6-10.3-12.3
				c-0.6-0.7-1.2-1.5-1.8-2.3c2.8,4.1,5.7,8.3,7.5,11.3c1.7,2.9,0.5,5.7-1.6,7.1C209,109.6,207.9,109.9,206.9,109.9z M179.9,75.8
				c0.8,0,1.8,1,6,5.5c0.9,0.9,1.6,1.7,1.9,2c2.4,2.2,8,10.2,13,17.2c1.6,2.2,3,4.3,4.2,5.9c1,1.4,2.5,1.2,3.4,0.6
				c1-0.7,1.8-2.1,0.8-3.8c-1.8-3-4.7-7.2-7.5-11.3c-7.4-10.8-7.9-11.7-6.6-12.8c1.2-0.9,2.3,0.2,5.3,3.6c2,2.3,4.5,5.4,7.2,8.7
				c3.8,4.6,7.6,9.4,10.2,12.2c0.9,1,2.3,0.7,3.2-0.1c0.9-0.8,1.5-2.3,0.2-3.9c-2.2-2.8-6-7.1-9.6-11.3
				c-11.4-13-11.9-13.9-10.6-15.1c1.4-1.4,3.2,0.1,14.8,11.8c3,3.1,5.9,6,7.9,7.8c1.4,1.3,2.5,0.6,2.9,0.2c0.9-0.8,1.2-2.3,0.2-3.6
				c-2.5-3.1-7.4-7.8-11.7-12c-7.7-7.5-8.8-8.7-8.7-9.8c0-0.4,0.3-0.8,0.6-1c2.1-1.3,5.5,1.4,12.9,7.7c1,0.9,2,1.7,3,2.6
				c1.1,0.9,2.2,0.6,2.8,0c0.6-0.6,1-1.6,0.2-2.7c-4.2-5.6-16.7-16.5-17.9-17.5c-4.2-3.4-7.9-6.2-11.5-8.8c-3-2.2-5.8-4.3-8.9-6.8
				c-0.8-0.7-2-1.8-3.1-3c-1.1-1.2-2.1-2.5-2.8-4l-13.2-24c-0.4-0.7-1-1.2-1.8-1.4c-0.7-0.2-1.5-0.1-2.2,0.3
				c-8.8,5.2-21.3,16.2-27.2,24c-0.6,0.8-0.8,1.7-0.7,2.7c0.1,1,0.7,1.8,1.5,2.4l20.5,14.6c2.9,1.9,5.1,4.6,6.3,7.8
				c1,2.4,1.8,5.2,2.8,8.2c0.9,2.9,2,6.2,3.2,9.5c0.9,2.5,3.4,7.7,5.4,11.9c0.9,1.8,1.6,3.4,2.2,4.7c0.4,0.9,1.1,1.6,1.9,1.7
				c0.4,0.1,0.9,0.1,1.4-0.4c0.8-0.7,1.1-1.7,0.9-3c-0.4-2.9-1.8-6.5-2.8-9.3c-1.7-4.5-2.6-6.9-0.8-7.8
				C179.6,75.9,179.7,75.8,179.9,75.8z"/>
		</g>
		<g>
			<path class="st0" d="M206.9,109.9c-1.4,0-2.8-0.6-3.9-2c-1.2-1.6-2.6-3.7-4.2-5.9c-4.7-6.6-10.5-14.8-12.7-16.9
				c-0.4-0.3-1.1-1.1-2-2.1c-0.8-0.8-1.9-2-2.9-3c0.3,0.9,0.7,2,1.1,2.9c1.1,3,2.5,6.7,3,9.8c0.3,2-0.3,3.9-1.7,5.1
				c-1,0.9-2.3,1.2-3.5,1c-1.5-0.3-2.9-1.4-3.6-3.1c-0.6-1.2-1.3-2.9-2.2-4.7c-2.1-4.5-4.5-9.5-5.5-12.1c-1.3-3.4-2.3-6.7-3.3-9.7
				c-0.9-2.9-1.8-5.7-2.7-8c-1.1-2.7-3-5-5.5-6.7c0,0-20.6-14.6-20.6-14.6c-1.3-1-2.2-2.4-2.5-4c-0.2-1.6,0.2-3.2,1.2-4.5
				c6.1-8.1,18.9-19.4,27.9-24.7c1.2-0.7,2.7-0.9,4.1-0.5c1.4,0.4,2.5,1.3,3.2,2.6L184,33c0.7,1.3,1.5,2.4,2.5,3.4
				c1,1.1,2.2,2.1,2.9,2.7c3,2.4,5.8,4.5,8.8,6.7c3.6,2.7,7.3,5.4,11.6,8.9c0.1,0.1,13.6,11.6,18.3,17.9c1.4,1.9,1.2,4.3-0.5,5.9
				c-1.4,1.3-3.9,1.9-6.1,0.1c-1-0.8-2-1.7-3-2.6c-1.9-1.6-4.6-3.9-6.8-5.5c1.5,1.6,3.5,3.4,5.2,5.1c4.4,4.2,9.3,9,11.9,12.2
				c1.9,2.4,1.2,5.3-0.5,6.9c-1.5,1.4-4,1.9-6.2-0.2c-2-1.9-4.9-4.8-8-7.9c-1.5-1.5-3.2-3.3-4.9-5c1.5,1.7,3,3.4,4.4,5
				c3.7,4.2,7.5,8.6,9.7,11.4c2.2,2.8,1.3,5.8-0.5,7.3c-2.1,1.8-4.9,1.7-6.6-0.1c-2.6-2.8-6.5-7.6-10.3-12.3
				c-0.6-0.7-1.2-1.5-1.8-2.3c2.8,4.1,5.7,8.3,7.5,11.3c1.7,2.9,0.5,5.7-1.6,7.1C209,109.6,207.9,109.9,206.9,109.9z M179.9,75.8
				c0.8,0,1.8,1,6,5.5c0.9,0.9,1.6,1.7,1.9,2c2.4,2.2,8,10.2,13,17.2c1.6,2.2,3,4.3,4.2,5.9c1,1.4,2.5,1.2,3.4,0.6
				c1-0.7,1.8-2.1,0.8-3.8c-1.8-3-4.7-7.2-7.5-11.3c-7.4-10.8-7.9-11.7-6.6-12.8c1.2-0.9,2.3,0.2,5.3,3.6c2,2.3,4.5,5.4,7.2,8.7
				c3.8,4.6,7.6,9.4,10.2,12.2c0.9,1,2.3,0.7,3.2-0.1c0.9-0.8,1.5-2.3,0.2-3.9c-2.2-2.8-6-7.1-9.6-11.3
				c-11.4-13-11.9-13.9-10.6-15.1c1.4-1.4,3.2,0.1,14.8,11.8c3,3.1,5.9,6,7.9,7.8c1.4,1.3,2.5,0.6,2.9,0.2c0.9-0.8,1.2-2.3,0.2-3.6
				c-2.5-3.1-7.4-7.8-11.7-12c-7.7-7.5-8.8-8.7-8.7-9.8c0-0.4,0.3-0.8,0.6-1c2.1-1.3,5.5,1.4,12.9,7.7c1,0.9,2,1.7,3,2.6
				c1.1,0.9,2.2,0.6,2.8,0c0.6-0.6,1-1.6,0.2-2.7c-4.2-5.6-16.7-16.5-17.9-17.5c-4.2-3.4-7.9-6.2-11.5-8.8c-3-2.2-5.8-4.3-8.9-6.8
				c-0.8-0.7-2-1.8-3.1-3c-1.1-1.2-2.1-2.5-2.8-4l-13.2-24c-0.4-0.7-1-1.2-1.8-1.4c-0.7-0.2-1.5-0.1-2.2,0.3
				c-8.8,5.2-21.3,16.2-27.2,24c-0.6,0.8-0.8,1.7-0.7,2.7c0.1,1,0.7,1.8,1.5,2.4l20.5,14.6c2.9,1.9,5.1,4.6,6.3,7.8
				c1,2.4,1.8,5.2,2.8,8.2c0.9,2.9,2,6.2,3.2,9.5c0.9,2.5,3.4,7.7,5.4,11.9c0.9,1.8,1.6,3.4,2.2,4.7c0.4,0.9,1.1,1.6,1.9,1.7
				c0.4,0.1,0.9,0.1,1.4-0.4c0.8-0.7,1.1-1.7,0.9-3c-0.4-2.9-1.8-6.5-2.8-9.3c-1.7-4.5-2.6-6.9-0.8-7.8
				C179.6,75.9,179.7,75.8,179.9,75.8z"/>
		</g>
	</g>
	<g>
		<g>
			<path class="st0" d="M200.1,171c-6.6,0-12-2.5-15.4-7c-3.4-4.5-4.2-10.5-2.3-16.8c1.9-6.2,6.1-12,12-16.4c6-4.4,14-7.7,21.5-8.7
				c8.5-1.2,14.9,0.6,18.2,5c6.9,9.2-2.5,27.8-14.9,37C213.4,168.5,206.6,170.9,200.1,171C200.1,171,200.1,171,200.1,171z
				 M220.7,124.2c-1.4,0-2.8,0.1-4.4,0.3c-7.1,1-14.8,4.1-20.4,8.3c-5.4,4.1-9.4,9.4-11.1,15.1c-1.7,5.6-1,10.8,1.9,14.6
				c2.9,3.9,7.6,6,13.4,6c0,0,0,0,0.1,0c5.9,0,12.2-2.3,17.7-6.3c11.4-8.5,20.3-25.7,14.4-33.6C230.1,125.7,226,124.2,220.7,124.2z"
				/>
		</g>
		<g>
			<path class="st0" d="M110.5,234.7c-6.1,0-10.8-1.8-13.4-5.4c-3.3-4.4-3.1-11.1,0.4-18.9c3.1-6.9,8.6-13.7,14.5-18.2
				c12.2-9.1,27.7-9,34.6,0.1c3.4,4.5,4.2,10.5,2.3,16.8c-1.9,6.2-6.1,12-12,16.4c-6,4.4-14,7.7-21.5,8.7
				C113.7,234.5,112.1,234.7,110.5,234.7z M99.1,227.8c2.7,3.6,8.5,5.1,15.9,4.1c7.1-1,14.8-4.1,20.4-8.3c5.4-4.1,9.4-9.4,11.1-15.1
				c1.7-5.6,1-10.8-1.9-14.6c-6-8.1-20-8-31.2,0.3c-5.6,4.2-10.8,10.6-13.8,17.2C96.7,218.3,96.4,224.3,99.1,227.8L99.1,227.8z"/>
		</g>
		<path class="st3" d="M110.4,195.4c20.7-33.3,49.9-55.1,87.7-65.4l23.2,31.1c-16.5,38.9-45.7,60.7-87.7,65.4L110.4,195.4z"/>
		<g>
			<path class="st0" d="M133.6,227.7c-0.4,0-0.7-0.2-1-0.5l-23.2-31.1c-0.3-0.4-0.3-0.9-0.1-1.4c20.7-33.4,50.5-55.6,88.4-65.9
				c0.5-0.1,1,0,1.3,0.4l23.2,31.1c0.3,0.3,0.3,0.8,0.1,1.2c-16.6,39.1-46.5,61.4-88.7,66.1C133.7,227.7,133.6,227.7,133.6,227.7z
				 M111.9,195.4l22.3,29.9c40.7-4.8,69.5-26.3,85.7-63.9l-22.3-29.9C160.9,141.6,132.1,163.1,111.9,195.4z"/>
		</g>
		<path class="st4" d="M110.4,195.4c20.7-33.3,49.9-55.1,87.7-65.4l23.2,31.1c-16.5,38.9-45.7,60.7-87.7,65.4L110.4,195.4z"/>
		<g>
			<path class="st0" d="M133.6,227.7c-0.4,0-0.7-0.2-1-0.5l-23.2-31.1c-0.3-0.4-0.3-0.9-0.1-1.4c20.7-33.4,50.5-55.6,88.4-65.9
				c0.5-0.1,1,0,1.3,0.4l23.2,31.1c0.3,0.3,0.3,0.8,0.1,1.2c-16.6,39.1-46.5,61.4-88.7,66.1C133.7,227.7,133.6,227.7,133.6,227.7z
				 M111.9,195.4l22.3,29.9c40.7-4.8,69.5-26.3,85.7-63.9l-22.3-29.9C160.9,141.6,132.1,163.1,111.9,195.4z"/>
		</g>
		<path class="st4" d="M117.6,194.7c18.8-28.9,44.7-48.2,77.7-58l19.3,25.9c-15.3,33.5-41.2,52.8-77.7,58L117.6,194.7z"/>
		<g>
			<path class="st0" d="M121.5,201.2c-0.4,0-0.7-0.2-1-0.5l-3.9-5.3c-0.3-0.4-0.3-1,0-1.4c1.2-1.9,2.5-3.7,3.7-5.5
				c0.4-0.5,1.2-0.7,1.7-0.3c0.5,0.4,0.7,1.2,0.3,1.7c-1.1,1.5-2.2,3.1-3.2,4.7l3.4,4.6c0.4,0.5,0.3,1.3-0.2,1.7
				C122,201.1,121.8,201.2,121.5,201.2z"/>
		</g>
		<g>
			<path class="st0" d="M128.8,180.8c-0.3,0-0.6-0.1-0.8-0.3c-0.5-0.4-0.6-1.2-0.1-1.7c2.7-3.2,5.5-6.2,8.4-9.1
				c0.5-0.5,1.3-0.5,1.7,0c0.5,0.5,0.5,1.3,0,1.7c-2.8,2.8-5.6,5.8-8.3,8.9C129.5,180.6,129.2,180.8,128.8,180.8z M146.3,163.5
				c-0.4,0-0.7-0.2-0.9-0.4c-0.4-0.5-0.4-1.3,0.2-1.7c3.2-2.6,6.5-5.1,9.9-7.4c0.6-0.4,1.3-0.2,1.7,0.3c0.4,0.6,0.2,1.3-0.3,1.7
				c-3.3,2.3-6.6,4.7-9.7,7.3C146.8,163.5,146.5,163.5,146.3,163.5z M166.6,149.8c-0.4,0-0.8-0.2-1.1-0.6c-0.3-0.6-0.1-1.3,0.5-1.7
				c3.6-2,7.3-3.8,11.1-5.5c0.6-0.3,1.3,0,1.6,0.6c0.3,0.6,0,1.3-0.6,1.6c-3.7,1.6-7.4,3.4-10.9,5.4
				C167,149.8,166.8,149.8,166.6,149.8z"/>
		</g>
		<g>
			<path class="st0" d="M199.3,143.2c-0.4,0-0.7-0.2-1-0.5l-3.4-4.6c-1.8,0.5-3.6,1.1-5.4,1.7c-0.6,0.2-1.3-0.1-1.5-0.8
				c-0.2-0.6,0.1-1.3,0.8-1.5c2.1-0.7,4.2-1.4,6.3-2c0.5-0.1,1,0,1.3,0.4l3.9,5.3c0.4,0.5,0.3,1.3-0.2,1.7
				C199.8,143.2,199.5,143.2,199.3,143.2z"/>
		</g>
		<g>
			<path class="st0" d="M211.7,169.7c-0.2,0-0.4,0-0.6-0.1c-0.6-0.3-0.8-1-0.5-1.6c0.9-1.7,1.7-3.4,2.6-5.2l-3.5-4.7
				c-0.4-0.5-0.3-1.3,0.2-1.7c0.5-0.4,1.3-0.3,1.7,0.2l3.9,5.3c0.3,0.4,0.3,0.8,0.1,1.2c-0.9,2-1.9,4-2.9,6
				C212.6,169.5,212.1,169.7,211.7,169.7z"/>
		</g>
		<g>
			<path class="st0" d="M155.6,217.6c-0.5,0-1-0.3-1.2-0.9c-0.2-0.6,0.2-1.3,0.8-1.5c4-1.3,7.9-2.8,11.6-4.5c0.6-0.3,1.3,0,1.6,0.6
				c0.3,0.6,0,1.3-0.6,1.6c-3.8,1.7-7.8,3.3-11.9,4.6C155.9,217.6,155.8,217.6,155.6,217.6z M178.5,207c-0.4,0-0.8-0.2-1-0.6
				c-0.4-0.6-0.2-1.3,0.4-1.7c3.5-2.2,6.8-4.7,10-7.4c0.5-0.4,1.3-0.4,1.7,0.1c0.4,0.5,0.4,1.3-0.1,1.7c-3.2,2.8-6.7,5.4-10.3,7.6
				C178.9,207,178.7,207,178.5,207z M197.6,190.6c-0.3,0-0.6-0.1-0.8-0.3c-0.5-0.4-0.6-1.2-0.1-1.7c2.7-3.1,5.2-6.4,7.6-9.9
				c0.4-0.6,1.1-0.7,1.7-0.3c0.6,0.4,0.7,1.1,0.3,1.7c-2.4,3.6-5,7-7.8,10.1C198.2,190.4,197.9,190.6,197.6,190.6z"/>
		</g>
		<g>
			<path class="st0" d="M136.9,221.8c-0.4,0-0.7-0.2-1-0.5l-3.9-5.3c-0.4-0.5-0.3-1.3,0.2-1.7c0.5-0.4,1.3-0.3,1.7,0.2l3.5,4.7
				c1.9-0.3,3.9-0.6,5.7-1c0.7-0.1,1.3,0.3,1.4,1c0.1,0.7-0.3,1.3-1,1.4c-2.1,0.4-4.3,0.8-6.6,1.1
				C137,221.8,136.9,221.8,136.9,221.8z"/>
		</g>
	</g>
	<g>
		<g>
			<path class="st2" d="M33.7,105.5c-1.7,3.6-2.7,7.6-2.7,11.9v74.4c0,5.2,4.3,9.4,9.5,9.4h39c5.3,0,9.5-4.2,9.5-9.4v-74.4
				c0-4.2-1-8.3-2.7-11.9L33.7,105.5z"/>
			<path class="st0" d="M79.5,202.4h-39c-5.9,0-10.8-4.7-10.8-10.6v-74.4c0-4.4,1-8.5,2.8-12.4c0.3-0.6,1-0.9,1.6-0.6
				c0.6,0.3,0.9,1,0.6,1.6c-1.7,3.6-2.6,7.4-2.6,11.4v74.4c0,4.5,3.7,8.1,8.3,8.1h39c4.6,0,8.3-3.7,8.3-8.1v-74.4
				c0-4-0.9-7.8-2.6-11.3c-0.3-0.6,0-1.3,0.6-1.6c0.6-0.3,1.3,0,1.6,0.6c1.9,3.9,2.8,8,2.8,12.4v74.4
				C90.2,197.6,85.4,202.4,79.5,202.4z"/>
		</g>
		<g>
			<path class="st4" d="M86.3,105.6c-2.6-5.4-6.8-9.8-12.1-12.6l-28.7,0.1c-5.1,2.8-9.3,7.2-11.8,12.4L86.3,105.6z"/>
			<path class="st0" d="M86.3,106.8c-0.5,0-0.9-0.3-1.1-0.7c-2.4-5-6.4-9.2-11.3-11.9l-28,0.1c-4.8,2.7-8.7,6.8-11.1,11.7
				c-0.3,0.6-1,0.9-1.6,0.6c-0.6-0.3-0.9-1-0.6-1.6c2.6-5.4,7-10,12.4-12.9c0.2-0.1,0.4-0.1,0.6-0.1l28.7-0.1c0.2,0,0.4,0,0.6,0.1
				c5.5,2.9,10,7.6,12.7,13.1c0.3,0.6,0,1.3-0.6,1.6C86.7,106.7,86.5,106.8,86.3,106.8z"/>
		</g>
		<g>
			<path class="st4" d="M78,175v3.8c0,2.3-2.2,4.2-4.8,4.2H46.8c-2.7,0-4.8-1.9-4.8-4.2v-31.4v-14.7v-13.5c0-2.3,2.2-4.2,4.8-4.2
				h26.3c2.7,0,4.8,1.9,4.8,4.2v48.6L78,175z"/>
			<path class="st0" d="M73.1,184.2H46.8c-3.3,0-6-2.4-6-5.4v-59.6c0-3,2.7-5.4,6-5.4h26.3c3.3,0,6,2.4,6,5.4l0,59.6
				C79.2,181.8,76.5,184.2,73.1,184.2z M46.8,116.2c-2,0-3.6,1.3-3.6,2.9v59.6c0,1.6,1.6,2.9,3.6,2.9h26.3c2,0,3.6-1.3,3.6-2.9V175
				l0-55.8c0-1.6-1.6-2.9-3.6-2.9H46.8z"/>
		</g>
		<g>
			<path class="st3" d="M47.1,93.2h25.7c1.2,0,2.2-1,2.2-2.2V65.9c0-2.9-2.3-5.2-5.2-5.2H50.1c-2.9,0-5.2,2.3-5.2,5.2V91
				C44.9,92.2,45.9,93.2,47.1,93.2z"/>
			<path class="st0" d="M72.8,94.4H47.1c-1.9,0-3.4-1.5-3.4-3.4V65.9c0-3.5,2.9-6.4,6.4-6.4h19.7c3.5,0,6.4,2.9,6.4,6.4V91
				C76.3,92.9,74.7,94.4,72.8,94.4z M50.1,61.9c-2.2,0-4,1.8-4,4V91c0,0.5,0.4,1,1,1h25.7c0.5,0,1-0.4,1-1V65.9c0-2.2-1.8-4-4-4
				H50.1z"/>
		</g>
		<g>
			<path class="st0" d="M82.4,76.2c-0.4,0-0.9-0.2-1.1-0.6c-0.3-0.6-0.1-1.3,0.5-1.6l19.7-10.4c0.6-0.3,1.3-0.1,1.6,0.5
				c0.3,0.6,0.1,1.3-0.5,1.6L83,76C82.8,76.1,82.6,76.2,82.4,76.2z"/>
		</g>
		<g>
			<path class="st0" d="M102.1,92.4c-0.2,0-0.4-0.1-0.6-0.2l-19.3-11c-0.6-0.3-0.8-1.1-0.5-1.7c0.3-0.6,1.1-0.8,1.7-0.5l19.3,11
				c0.6,0.3,0.8,1.1,0.5,1.7C103,92.1,102.6,92.4,102.1,92.4z"/>
		</g>
		<g>
			<path class="st0" d="M102.1,79.1l-8.2,0c-0.7,0-1.2-0.5-1.2-1.2s0.5-1.2,1.2-1.2l8.2,0c0.7,0,1.2,0.5,1.2,1.2
				C103.4,78.5,102.8,79.1,102.1,79.1z"/>
		</g>
		<g>
			<path class="st4" d="M68,77.8c0,3.8,3.1,6.9,7,6.9V71C71.2,71,68,74,68,77.8z"/>
			<path class="st0" d="M75.1,85.9c-4.5,0-8.2-3.6-8.2-8.1c0-4.5,3.7-8.1,8.2-8.1c0.7,0,1.2,0.5,1.2,1.2v13.8
				C76.3,85.4,75.7,85.9,75.1,85.9z M73.8,72.3c-2.6,0.5-4.6,2.8-4.6,5.5c0,2.7,2,5,4.6,5.5V72.3z"/>
		</g>
		<g>
			<path class="st0" d="M59.1,141.5c-0.6,0-1.2-0.5-1.2-1.1l-0.2-2.9c0-0.7,0.5-1.2,1.1-1.3c0.7,0,1.2,0.5,1.3,1.1l0.2,2.9
				C60.4,140.9,59.9,141.5,59.1,141.5C59.2,141.5,59.2,141.5,59.1,141.5z"/>
		</g>
		<g>
			<path class="st0" d="M65.9,145.7c-0.4,0-0.8-0.2-1-0.6c-0.3-0.6-0.2-1.3,0.4-1.7l2.7-1.6c0.6-0.3,1.3-0.2,1.7,0.4
				c0.3,0.6,0.2,1.3-0.4,1.7l-2.7,1.6C66.3,145.6,66.1,145.7,65.9,145.7z"/>
		</g>
		<g>
			<path class="st0" d="M68.8,152.4c-0.5,0-1-0.4-1.2-0.9c-0.2-0.7,0.2-1.3,0.9-1.5l2.8-0.7c0.7-0.2,1.3,0.2,1.5,0.9
				c0.2,0.7-0.2,1.3-0.9,1.5l-2.8,0.7C69,152.3,68.9,152.4,68.8,152.4z"/>
		</g>
		<g>
			<path class="st0" d="M70.7,159.9c-0.1,0-0.2,0-0.3,0l-2.5-0.6c-0.7-0.1-1.1-0.8-0.9-1.5c0.1-0.7,0.8-1.1,1.5-0.9l2.5,0.6
				c0.7,0.1,1.1,0.8,0.9,1.5C71.8,159.5,71.3,159.9,70.7,159.9z"/>
		</g>
		<g>
			<path class="st0" d="M66.5,167.7c-0.3,0-0.6-0.1-0.8-0.3l-1.9-1.8c-0.5-0.5-0.5-1.2-0.1-1.7c0.5-0.5,1.2-0.5,1.7-0.1l1.9,1.8
				c0.5,0.5,0.5,1.2,0.1,1.7C67.1,167.6,66.8,167.7,66.5,167.7z"/>
		</g>
		<g>
			<path class="st0" d="M58.4,172.1c-0.6,0-1.1-0.5-1.2-1.1l-0.3-2.4c-0.1-0.7,0.4-1.3,1.1-1.3c0.7-0.1,1.3,0.4,1.3,1.1l0.3,2.4
				c0.1,0.7-0.4,1.3-1.1,1.3C58.5,172.1,58.4,172.1,58.4,172.1z"/>
		</g>
		<g>
			<path class="st0" d="M48,164.8c-0.6,0-1.1-0.4-1.2-1.1c-0.1-0.7,0.4-1.3,1-1.4l2.6-0.3c0.7-0.1,1.3,0.4,1.4,1
				c0.1,0.7-0.4,1.3-1,1.4l-2.6,0.3C48.2,164.7,48.1,164.8,48,164.8z"/>
		</g>
		<g>
			<path class="st0" d="M53.4,158.3c-0.4,0-0.7-0.2-1-0.5l-1.3-1.7c-0.4-0.5-0.3-1.3,0.2-1.7c0.5-0.4,1.3-0.3,1.7,0.2l1.3,1.7
				c0.4,0.5,0.3,1.3-0.2,1.7C53.9,158.2,53.7,158.3,53.4,158.3z"/>
		</g>
		<g>
			<path class="st0" d="M51.3,151.6c-0.4,0-0.9-0.2-1.1-0.7c-0.3-0.6-0.1-1.3,0.5-1.6l2.3-1.2c0.6-0.3,1.3-0.1,1.6,0.5
				c0.3,0.6,0.1,1.3-0.5,1.6l-2.3,1.2C51.7,151.6,51.5,151.6,51.3,151.6z"/>
		</g>
		<g>
			<path class="st0" d="M54.3,144.4c-0.2,0-0.4-0.1-0.6-0.2l-2.8-1.7c-0.6-0.3-0.8-1.1-0.4-1.7c0.3-0.6,1.1-0.8,1.7-0.4l2.8,1.7
				c0.6,0.3,0.8,1.1,0.4,1.7C55.1,144.2,54.7,144.4,54.3,144.4z"/>
		</g>
		<g>
			<path class="st3" d="M54.3,157c0.5-0.3,3.4,0,3.9-2.1c0.4-1.7-1.2-2.8-2.2-3.5c-2.6-1.6-3.3-5.2-1.7-7.8c1.7-2.8,5.4-3.8,8.2-2.1
				c0.2,0.1,0.5,0.3,0.7,0.5c0.6,0.4,1.2,1,1.8,1.8c0.9,1.1,1.8,2.4,2.5,4.1c0.9,2.3,1.5,5,1,8.1c-1.2,7.3-5.8,10.8-9.1,12
				c-0.2,0.1-0.3,0.1-0.5,0.2c-0.3,0-0.5,0.1-0.7,0.2c-3.2,0.7-6.1-1.3-7.1-4.4C50.1,160.8,51.6,158,54.3,157z"/>
			<path class="st0" d="M56.9,169.7c-3.1,0-5.9-2.1-7-5.4c-1.1-3.5,0.6-7.1,4-8.4c0.3-0.1,0.7-0.2,1.1-0.2c1.2-0.2,1.9-0.4,2.1-0.9
				c0.2-0.9-0.8-1.7-1.6-2.2c-3.2-1.9-4.1-6.2-2.1-9.5c2.1-3.4,6.5-4.5,9.9-2.5c0.3,0.2,0.5,0.3,0.8,0.5c0.7,0.6,1.4,1.2,2,2
				c1.1,1.3,2,2.8,2.7,4.4c1.2,2.8,1.5,5.7,1,8.7c-1.5,9.2-8,12.2-9.9,13c-0.1,0.1-0.3,0.1-0.5,0.2c-0.1,0-0.2,0.1-0.4,0.1
				c-0.2,0.1-0.4,0.1-0.5,0.1C57.9,169.6,57.4,169.7,56.9,169.7z M54.8,158.1C54.8,158.1,54.8,158.1,54.8,158.1
				c-2.3,0.8-3.4,3.1-2.6,5.4c0.8,2.6,3.2,4.1,5.7,3.6c0.2,0,0.4-0.1,0.6-0.2c0.1,0,0.1,0,0.2,0c0.1,0,0.1-0.1,0.2-0.1
				c1.7-0.6,7.1-3.2,8.4-11.1c0.4-2.5,0.1-5-0.9-7.4c-0.6-1.4-1.3-2.7-2.3-3.8c-0.7-0.8-1.3-1.3-1.6-1.6c-0.2-0.1-0.4-0.3-0.6-0.4
				c-2.2-1.3-5.2-0.5-6.6,1.7c-1.3,2.1-0.7,4.9,1.3,6.1c2.8,1.7,3,3.5,2.7,4.8c-0.5,2.4-2.9,2.7-4.1,2.9
				C55.1,158,55,158.1,54.8,158.1z"/>
		</g>
		<g>
			<path class="st0" d="M46.7,183.2c-0.2,0-0.3,0-0.5-0.1c-0.6-0.3-0.9-1-0.7-1.6l26.9-66c0.3-0.6,1-0.9,1.6-0.7
				c0.6,0.3,0.9,1,0.7,1.6l-26.9,66C47.6,182.9,47.2,183.2,46.7,183.2z"/>
		</g>
		<g>
			<ellipse class="st3" cx="58.5" cy="125.3" rx="4.9" ry="4.8"/>
			<path class="st0" d="M58.5,131.3c-3.4,0-6.1-2.7-6.1-6c0-3.3,2.7-6,6.1-6c3.4,0,6.1,2.7,6.1,6C64.6,128.6,61.9,131.3,58.5,131.3z
				 M58.5,121.7c-2,0-3.7,1.6-3.7,3.6c0,2,1.6,3.6,3.7,3.6c2,0,3.7-1.6,3.7-3.6C62.2,123.3,60.5,121.7,58.5,121.7z"/>
		</g>
		<g>
			<path class="st0" d="M86.2,106.9H33.9c-0.7,0-1.2-0.5-1.2-1.2s0.5-1.2,1.2-1.2h52.2c0.7,0,1.2,0.5,1.2,1.2S86.8,106.9,86.2,106.9
				z"/>
		</g>
		<g>
			<path class="st0" d="M60.1,106.6c-0.7,0-1.2-0.5-1.2-1.2V93.5c0-0.7,0.5-1.2,1.2-1.2c0.7,0,1.2,0.5,1.2,1.2v11.9
				C61.3,106.1,60.8,106.6,60.1,106.6z"/>
		</g>
	</g>
</g>
</svg>
