<?xml version="1.0" encoding="utf-8"?>
<!-- Generator: Adobe Illustrator 22.1.0, SVG Export Plug-In . SVG Version: 6.00 Build 0)  -->
<svg version="1.1" id="Layer_1" xmlns="http://www.w3.org/2000/svg" xmlns:xlink="http://www.w3.org/1999/xlink" x="0px" y="0px"
	 viewBox="0 0 251 245" style="enable-background:new 0 0 251 245;" xml:space="preserve">
<style type="text/css">
	.st0{fill:#3C3575;}
	.st1{fill:#FFFFFF;}
	.st2{fill:#FFCE3B;}
	.st3{fill:#8A7AFF;}
</style>
<g>
	<g>
		<g>
			<g>
				<path class="st0" d="M15.5,170.5c-0.5,0-0.9-0.3-1.1-0.8c-1.8-4.3-3.3-8.7-4.6-13.1c-0.2-0.7,0.2-1.3,0.8-1.5
					c0.7-0.2,1.3,0.2,1.5,0.8c1.2,4.3,2.7,8.7,4.5,12.8c0.3,0.6,0,1.3-0.7,1.6C15.8,170.4,15.6,170.5,15.5,170.5z M8,144.1
					c-0.6,0-1.1-0.4-1.2-1c-0.7-4.5-1.2-9.2-1.4-13.8c0-0.7,0.5-1.2,1.2-1.3c0.7,0,1.2,0.5,1.3,1.2c0.2,4.5,0.7,9.1,1.4,13.5
					c0.1,0.7-0.3,1.3-1,1.4C8.1,144.1,8,144.1,8,144.1z M6.7,116.7C6.7,116.7,6.7,116.7,6.7,116.7c-0.8-0.1-1.3-0.6-1.2-1.3
					c0.1-1.4,0.2-2.7,0.4-4.1c0.3-3.2,0.8-6.5,1.4-9.7c0.1-0.7,0.8-1.1,1.4-1c0.7,0.1,1.1,0.8,1,1.4c-0.6,3.1-1,6.3-1.4,9.5
					c-0.1,1.3-0.3,2.7-0.3,4C7.9,116.2,7.4,116.7,6.7,116.7z M11.7,89.8c-0.1,0-0.2,0-0.4-0.1c-0.6-0.2-1-0.9-0.8-1.5
					c1.4-4.4,3-8.8,4.8-13c0.3-0.6,1-0.9,1.6-0.6c0.6,0.3,0.9,1,0.6,1.6c-1.8,4.1-3.4,8.4-4.7,12.7C12.7,89.4,12.3,89.8,11.7,89.8z
					 M22.8,64.7c-0.2,0-0.4-0.1-0.6-0.2c-0.6-0.3-0.8-1.1-0.4-1.7c2.3-4,4.9-7.9,7.7-11.5c0.4-0.5,1.2-0.6,1.7-0.2
					c0.5,0.4,0.6,1.2,0.2,1.7c-2.7,3.6-5.3,7.4-7.5,11.3C23.6,64.5,23.2,64.7,22.8,64.7z M39.3,42.8c-0.3,0-0.6-0.1-0.8-0.3
					c-0.5-0.5-0.5-1.2,0-1.7c3.2-3.3,6.6-6.5,10.1-9.5c0.5-0.4,1.3-0.4,1.7,0.2c0.4,0.5,0.4,1.3-0.2,1.7c-3.5,2.9-6.8,6-9.9,9.3
					C39.9,42.7,39.6,42.8,39.3,42.8z"/>
			</g>
			<g>
				<path class="st0" d="M130.5,244c-0.7,0-1.2-0.5-1.2-1.2c0-0.7,0.5-1.2,1.2-1.3c4.5-0.2,9.1-0.6,13.5-1.3c0.7-0.1,1.3,0.4,1.4,1
					c0.1,0.7-0.4,1.3-1,1.4C139.9,243.4,135.2,243.9,130.5,244C130.6,244,130.6,244,130.5,244z M116.8,243.8
					C116.8,243.8,116.8,243.8,116.8,243.8c-1.3-0.1-2.4-0.2-3.6-0.3c-3.4-0.4-6.9-0.9-10.2-1.5c-0.7-0.1-1.1-0.8-1-1.4
					c0.1-0.7,0.8-1.1,1.4-1c3.3,0.6,6.7,1.1,10,1.5c1.1,0.1,2.3,0.2,3.4,0.3c0.7,0.1,1.2,0.6,1.1,1.3
					C118,243.3,117.5,243.8,116.8,243.8z M157.6,239.8c-0.5,0-1-0.4-1.2-0.9c-0.2-0.7,0.2-1.3,0.9-1.5c4.3-1.2,8.7-2.7,12.9-4.4
					c0.6-0.3,1.3,0,1.6,0.7c0.3,0.6,0,1.3-0.7,1.6c-4.3,1.7-8.7,3.3-13.1,4.5C157.8,239.8,157.7,239.8,157.6,239.8z M89.9,238.7
					c-0.1,0-0.2,0-0.4-0.1c-4.4-1.4-8.8-3-13-4.9c-0.6-0.3-0.9-1-0.6-1.6c0.3-0.6,1-0.9,1.6-0.6c4.1,1.8,8.4,3.5,12.7,4.8
					c0.6,0.2,1,0.9,0.8,1.5C90.9,238.3,90.4,238.7,89.9,238.7z M183,229.4c-0.4,0-0.9-0.2-1.1-0.6c-0.3-0.6-0.1-1.3,0.5-1.7
					c4-2.2,7.8-4.6,11.5-7.2c0.6-0.4,1.3-0.3,1.7,0.3c0.4,0.6,0.3,1.3-0.3,1.7c-3.8,2.7-7.7,5.2-11.7,7.4
					C183.4,229.4,183.2,229.4,183,229.4z M64.9,227.5c-0.2,0-0.4-0.1-0.6-0.2c-4-2.4-7.8-5-11.5-7.8c-0.5-0.4-0.6-1.2-0.2-1.7
					c0.4-0.5,1.2-0.6,1.7-0.2c3.6,2.7,7.4,5.3,11.3,7.6c0.6,0.3,0.8,1.1,0.4,1.7C65.7,227.3,65.3,227.5,64.9,227.5z"/>
			</g>
			<g>
				<path class="st0" d="M243.7,141.3c-0.1,0-0.1,0-0.2,0c-0.7-0.1-1.1-0.7-1-1.4c0.2-1.3,0.3-2.7,0.5-4c0.3-3.2,0.5-6.4,0.6-9.5
					c0-0.7,0.6-1.2,1.3-1.2c0.7,0,1.2,0.6,1.2,1.3c-0.1,3.2-0.3,6.5-0.6,9.7c-0.1,1.4-0.3,2.7-0.5,4.1
					C244.8,140.8,244.3,141.3,243.7,141.3z M244.3,113.9c-0.6,0-1.2-0.5-1.2-1.1c-0.4-4.5-1.1-9-2-13.4c-0.1-0.7,0.3-1.3,0.9-1.5
					c0.7-0.1,1.3,0.3,1.5,0.9c1,4.5,1.6,9.1,2.1,13.7c0.1,0.7-0.4,1.3-1.1,1.3C244.4,113.9,244.3,113.9,244.3,113.9z M238.6,87.1
					c-0.5,0-1-0.3-1.2-0.8c-1.4-4.3-3.1-8.5-5.1-12.6c-0.3-0.6,0-1.3,0.6-1.6c0.6-0.3,1.3,0,1.6,0.6c2,4.2,3.7,8.5,5.2,12.9
					c0.2,0.6-0.1,1.3-0.8,1.6C238.9,87,238.8,87.1,238.6,87.1z M227,62.3c-0.4,0-0.8-0.2-1-0.6c-2.4-3.8-5-7.6-7.8-11.1
					c-0.4-0.5-0.3-1.3,0.2-1.7c0.5-0.4,1.3-0.3,1.7,0.2c2.9,3.6,5.5,7.4,8,11.4c0.4,0.6,0.2,1.3-0.4,1.7
					C227.4,62.2,227.2,62.3,227,62.3z M210,40.8c-0.3,0-0.6-0.1-0.9-0.4c-3.2-3.2-6.6-6.2-10.1-9.1c-0.5-0.4-0.6-1.2-0.2-1.7
					c0.4-0.5,1.2-0.6,1.7-0.2c3.6,2.9,7.1,6,10.3,9.2c0.5,0.5,0.5,1.3,0,1.7C210.6,40.7,210.3,40.8,210,40.8z M188.5,23.7
					c-0.2,0-0.4-0.1-0.6-0.2c-3.8-2.4-7.9-4.6-11.9-6.5c-0.6-0.3-0.9-1-0.6-1.6c0.3-0.6,1-0.9,1.6-0.6c4.2,2,8.3,4.2,12.2,6.6
					c0.6,0.4,0.7,1.1,0.4,1.7C189.3,23.5,188.9,23.7,188.5,23.7z M163.7,12c-0.1,0-0.3,0-0.4-0.1c-4.3-1.4-8.7-2.6-13.1-3.6
					c-0.7-0.1-1.1-0.8-0.9-1.5c0.1-0.7,0.8-1.1,1.5-0.9c4.5,1,9,2.2,13.4,3.7c0.6,0.2,1,0.9,0.8,1.6C164.7,11.7,164.2,12,163.7,12z
					 M96,9.5c-0.5,0-1-0.4-1.2-0.9c-0.2-0.7,0.2-1.3,0.9-1.5c4.5-1.1,9-2,13.6-2.7c0.7-0.1,1.3,0.4,1.4,1c0.1,0.7-0.4,1.3-1,1.4
					c-4.5,0.6-9,1.5-13.3,2.6C96.2,9.5,96.1,9.5,96,9.5z M136.9,6.3c0,0-0.1,0-0.1,0c-4.5-0.4-9.1-0.6-13.6-0.5
					c-0.7,0-1.2-0.5-1.2-1.2c0-0.7,0.5-1.2,1.2-1.2c4.6-0.1,9.3,0.1,13.9,0.5c0.7,0.1,1.2,0.7,1.1,1.3
					C138.1,5.8,137.6,6.3,136.9,6.3z"/>
			</g>
		</g>
		<g>
			
				<ellipse transform="matrix(0.7071 -0.7071 0.7071 0.7071 -50.6963 125.0682)" class="st1" cx="125.6" cy="123.7" rx="87.7" ry="87.7"/>
		</g>
	</g>
	<g>
		<g>
			<g>
				<polygon class="st1" points="100.8,202.8 36.5,202.8 36.5,137.2 100.8,137.3 				"/>
				<path class="st0" d="M100.8,204.1c0,0-64.3-0.1-64.3-0.1c-0.7,0-1.2-0.5-1.2-1.2v-65.5c0-0.3,0.1-0.6,0.4-0.9
					c0.2-0.2,0.5-0.4,0.9-0.4c0,0,64.3,0.1,64.3,0.1c0.7,0,1.2,0.5,1.2,1.2v65.5c0,0.3-0.1,0.6-0.4,0.9
					C101.4,203.9,101.1,204.1,100.8,204.1z M37.7,201.5l61.8,0.1v-63.1l-61.8-0.1V201.5z"/>
			</g>
			<g>
				<path class="st2" d="M35.5,161.2h5c7.2,0,13.1-5.9,13.1-13.1V143c0-0.3-0.2-0.5-0.5-0.5H22.9c-0.3,0-0.5,0.2-0.5,0.5v5.1
					C22.4,155.4,28.3,161.2,35.5,161.2z"/>
				<path class="st0" d="M40.5,162.5h-5c-7.9,0-14.3-6.4-14.3-14.3V143c0-0.9,0.8-1.7,1.7-1.7h30.2c0.9,0,1.7,0.8,1.7,1.7v5.1
					C54.8,156,48.4,162.5,40.5,162.5z M23.7,143.8v4.4c0,6.5,5.3,11.9,11.9,11.9h5c6.5,0,11.9-5.3,11.9-11.9v-4.4H23.7z"/>
			</g>
			<g>
				<polygon class="st2" points="115.9,143 106.3,115.5 54,115.3 32.1,115.1 22.4,142.6 53.6,142.6 53.6,143 				"/>
				<path class="st0" d="M115.9,144.2H53.6c-0.3,0-0.6-0.1-0.9-0.4c0,0,0,0,0,0H22.4c-0.4,0-0.8-0.2-1-0.5c-0.2-0.3-0.3-0.7-0.2-1.1
					l9.7-27.5c0.2-0.5,0.7-0.8,1.2-0.8l21.9,0.2l52.2,0.2c0.5,0,1,0.3,1.2,0.8l9.7,27.5c0.1,0.4,0.1,0.8-0.2,1.1
					C116.7,144,116.3,144.2,115.9,144.2z M54.5,141.7h59.7l-8.8-25L54,116.5l-21-0.2l-8.8,25h29.4C53.9,141.3,54.2,141.5,54.5,141.7
					C54.5,141.7,54.5,141.7,54.5,141.7z"/>
			</g>
			<g>
				<g>
					<path class="st1" d="M71.7,161.6h-5c-7.2,0-13.1-5.9-13.1-13.1v-5.1c0-0.3,0.2-0.5,0.5-0.5h30.2c0.3,0,0.5,0.2,0.5,0.5v5.1
						C84.8,155.8,78.9,161.6,71.7,161.6z"/>
					<path class="st0" d="M71.7,162.9h-5c-7.9,0-14.3-6.4-14.3-14.3v-5.1c0-0.9,0.8-1.7,1.7-1.7h30.2c0.9,0,1.7,0.8,1.7,1.7v5.1
						C86,156.4,79.6,162.9,71.7,162.9z M54.8,144.2v4.4c0,6.5,5.3,11.9,11.9,11.9h5c6.5,0,11.9-5.3,11.9-11.9v-4.4H54.8z"/>
				</g>
				<g>
					<path class="st2" d="M102.8,161.6h-5c-7.2,0-13.1-5.9-13.1-13.1v-5.1c0-0.3,0.2-0.5,0.5-0.5h30.2c0.3,0,0.5,0.2,0.5,0.5v5.1
						C115.9,155.8,110,161.6,102.8,161.6z"/>
					<path class="st0" d="M102.8,162.9h-5c-7.9,0-14.3-6.4-14.3-14.3v-5.1c0-0.9,0.8-1.7,1.7-1.7h30.2c0.9,0,1.7,0.8,1.7,1.7v5.1
						C117.2,156.4,110.7,162.9,102.8,162.9z M86,144.2v4.4c0,6.5,5.3,11.9,11.9,11.9h5c6.5,0,11.9-5.3,11.9-11.9v-4.4H86z"/>
				</g>
			</g>
			<g>
				<polygon class="st1" points="53.6,143 84.8,143 81.9,115.4 54,115.3 				"/>
				<path class="st0" d="M84.8,144.2H53.6c-0.3,0-0.6-0.1-0.9-0.4s-0.4-0.5-0.4-0.9l0.4-27.7c0-0.7,0.6-1.2,1.2-1.2
					c0,0,27.9,0.1,27.9,0.1c0.6,0,1.1,0.5,1.2,1.1l2.8,27.6c0,0.3-0.1,0.7-0.3,0.9C85.4,144,85.1,144.2,84.8,144.2z M54.8,141.7
					h28.6l-2.6-25.1l-25.6-0.1L54.8,141.7z"/>
			</g>
		</g>
		<g>
			<g>
				<path class="st3" d="M105.9,158.4v6.5c0,0.3-0.3,0.6-0.6,0.6h-8.6c-0.3,0-0.6-0.3-0.6-0.6v-6.5c0-0.4,0.3-0.6,0.6-0.6h8.6
					C105.6,157.8,105.9,158.1,105.9,158.4z"/>
				<path class="st0" d="M105.2,166.8h-8.6c-1,0-1.9-0.8-1.9-1.9v-6.5c0-1,0.8-1.9,1.9-1.9h8.6c1,0,1.9,0.8,1.9,1.9v6.5
					C107.1,166,106.3,166.8,105.2,166.8z M97.3,164.4h7.4V159h-7.4V164.4z"/>
			</g>
			<g>
				<path class="st0" d="M102.9,167.6c-0.7,0-1.2-0.5-1.2-1.2v-0.6c0-0.7,0.5-1.2,1.2-1.2c0.7,0,1.2,0.5,1.2,1.2v0.6
					C104.2,167.1,103.6,167.6,102.9,167.6z"/>
			</g>
			<g>
				<path class="st0" d="M98.3,167.6c-0.7,0-1.2-0.5-1.2-1.2v-0.5c0-0.7,0.5-1.2,1.2-1.2c0.7,0,1.2,0.5,1.2,1.2v0.5
					C99.5,167.1,99,167.6,98.3,167.6z"/>
			</g>
			<g>
				<g>
					<path class="st3" d="M87.7,169.1l-0.9,0.7l-4.1,3.2l-0.9,0.7c-0.2,0.2-0.6,0.1-0.8-0.1l-3.5-4.5c-0.2-0.2-0.1-0.6,0.1-0.8
						l5.9-4.6c0.2-0.2,0.6-0.1,0.8,0.1l3.5,4.5C88,168.5,87.9,168.9,87.7,169.1z"/>
					<path class="st0" d="M81.5,175c-0.5,0-1-0.2-1.4-0.7l-3.5-4.5c-0.3-0.4-0.4-0.8-0.4-1.3c0.1-0.5,0.3-0.9,0.7-1.2l5.9-4.6
						c0.7-0.6,1.9-0.5,2.5,0.3l3.5,4.5c0.6,0.8,0.5,1.9-0.3,2.5c0,0-5.9,4.6-5.9,4.6C82.2,174.9,81.9,175,81.5,175z M78.9,168.9
						l2.7,3.4l4.8-3.8l-2.7-3.4L78.9,168.9z"/>
				</g>
			</g>
			<g>
				<path class="st0" d="M104,170.5c-0.5,0-1-0.3-1.2-0.8c-0.2-0.6,0.1-1.3,0.8-1.5c3.4-1.1,5.7-4.3,5.7-7.8c0-4.6-3.7-8.3-8.2-8.4
					c-2.2,0-4.3,0.8-5.9,2.4c-1.6,1.6-2.5,3.6-2.5,5.9c0,3.5,2.2,6.7,5.5,7.9c0.6,0.2,1,0.9,0.7,1.6c-0.2,0.6-0.9,1-1.6,0.7
					c-4.3-1.6-7.1-5.7-7.1-10.2c0-5.9,4.9-10.7,10.9-10.7c5.9,0,10.7,4.9,10.7,10.9c0,4.6-3,8.7-7.4,10.1
					C104.2,170.5,104.1,170.5,104,170.5z"/>
			</g>
			<g>
				<path class="st1" d="M125,188.5c0.9,13.3-9.1,24.8-22.3,25.7c-13.3,0.9-24.8-9-25.7-22.3c-0.9-13.3,9-24.8,22.3-25.7
					C112.5,165.3,124.1,175.2,125,188.5z"/>
				<path class="st0" d="M101,215.5c-13.2,0-24.4-10.2-25.3-23.5c-1-13.9,9.5-26,23.4-27c6.8-0.5,13.3,1.7,18.4,6.2
					c5.1,4.4,8.1,10.6,8.6,17.3c0.4,6.8-1.7,13.3-6.2,18.4c-4.4,5.1-10.6,8.2-17.3,8.6C102.2,215.5,101.6,215.5,101,215.5z
					 M101,167.4c-0.6,0-1.1,0-1.7,0.1c-12.6,0.9-22.1,11.8-21.2,24.4c0.9,12,11,21.2,22.9,21.2c0.5,0,1,0,1.5-0.1
					c6-0.4,11.6-3.2,15.6-7.8c4-4.6,6-10.5,5.6-16.6c-0.4-6.1-3.1-11.6-7.7-15.6C111.8,169.3,106.5,167.4,101,167.4z"/>
			</g>
			<g>
				<path class="st0" d="M117.5,208c-0.3,0-0.6-0.1-0.9-0.3L102,193.3c-0.5-0.5-0.5-1.2,0-1.7c0.5-0.5,1.2-0.5,1.7,0l14.7,14.4
					c0.5,0.5,0.5,1.2,0,1.7C118.1,207.9,117.8,208,117.5,208z"/>
			</g>
			<g>
				<g>
					<path class="st0" d="M101,171.9c-0.7,0-1.2-0.5-1.2-1.2v-4.5c0-0.7,0.5-1.2,1.2-1.2c0.7,0,1.2,0.5,1.2,1.2v4.5
						C102.2,171.3,101.6,171.9,101,171.9z"/>
				</g>
				<g>
					<path class="st0" d="M101,215.2c-0.7,0-1.2-0.5-1.2-1.2v-4.5c0-0.7,0.5-1.2,1.2-1.2c0.7,0,1.2,0.5,1.2,1.2v4.5
						C102.2,214.6,101.6,215.2,101,215.2z"/>
				</g>
				<g>
					<path class="st0" d="M124.9,191.3h-4.5c-0.7,0-1.2-0.5-1.2-1.2s0.5-1.2,1.2-1.2h4.5c0.7,0,1.2,0.5,1.2,1.2
						S125.5,191.3,124.9,191.3z"/>
				</g>
				<g>
					<path class="st0" d="M81.6,191.3h-4.5c-0.7,0-1.2-0.5-1.2-1.2s0.5-1.2,1.2-1.2h4.5c0.7,0,1.2,0.5,1.2,1.2
						S82.2,191.3,81.6,191.3z"/>
				</g>
				<g>
					<path class="st0" d="M114.7,177.6c-0.3,0-0.6-0.1-0.9-0.4c-0.5-0.5-0.5-1.3,0-1.7l3.2-3.2c0.5-0.5,1.3-0.5,1.7,0
						c0.5,0.5,0.5,1.3,0,1.7l-3.2,3.2C115.3,177.5,115,177.6,114.7,177.6z"/>
				</g>
				<g>
					<path class="st0" d="M84.1,208.2c-0.3,0-0.6-0.1-0.9-0.4c-0.5-0.5-0.5-1.3,0-1.7l3.2-3.2c0.5-0.5,1.3-0.5,1.7,0
						c0.5,0.5,0.5,1.3,0,1.7l-3.2,3.2C84.7,208.1,84.4,208.2,84.1,208.2z"/>
				</g>
				<g>
					<path class="st0" d="M87.2,177.6c-0.3,0-0.6-0.1-0.9-0.4l-3.2-3.2c-0.5-0.5-0.5-1.3,0-1.7c0.5-0.5,1.3-0.5,1.7,0l3.2,3.2
						c0.5,0.5,0.5,1.3,0,1.7C87.9,177.5,87.6,177.6,87.2,177.6z"/>
				</g>
			</g>
			<g>
				<path class="st1" d="M98.6,190.7c-0.1,1.3,0.9,2.5,2.2,2.6c1.3,0.1,2.5-0.9,2.6-2.2c0.1-1.3-0.9-2.5-2.2-2.6
					C99.8,188.4,98.7,189.4,98.6,190.7z"/>
				<path class="st0" d="M101,194.5c-0.1,0-0.2,0-0.3,0c-1-0.1-1.8-0.5-2.5-1.2c-0.6-0.7-0.9-1.7-0.9-2.6c0.1-1,0.5-1.8,1.2-2.5
					c0.7-0.6,1.7-0.9,2.6-0.9c1,0.1,1.8,0.5,2.5,1.2c0.6,0.7,0.9,1.7,0.9,2.6C104.4,193.1,102.8,194.5,101,194.5z M101,189.7
					c-0.3,0-0.6,0.1-0.8,0.3c-0.2,0.2-0.4,0.5-0.4,0.8c0,0.3,0.1,0.6,0.3,0.9c0.2,0.2,0.5,0.4,0.8,0.4c0.6,0,1.2-0.4,1.3-1.1
					c0-0.3-0.1-0.6-0.3-0.9C101.6,189.9,101.4,189.8,101,189.7C101,189.7,101,189.7,101,189.7z"/>
			</g>
		</g>
		<g>
			<rect x="48.5" y="168.7" class="st3" width="17.7" height="34.1"/>
			<path class="st0" d="M66.2,204H48.5c-0.7,0-1.2-0.5-1.2-1.2v-34.1c0-0.7,0.5-1.2,1.2-1.2h17.7c0.7,0,1.2,0.5,1.2,1.2v34.1
				C67.5,203.5,66.9,204,66.2,204z M49.7,201.6H65v-31.6H49.7V201.6z"/>
		</g>
	</g>
	<g>
		<g>
			<g>
				<path class="st3" d="M99,31.8c-1.6-7.4-8.1-12.9-16-12.9c-9,0-16.3,7.3-16.3,16.3c0,1.8,0.3,3.6,0.9,5.2
					c-5.9,1.7-10.2,7.1-10.2,13.5c0,7.7,6.3,14,14,14c3.7,0,7.1-1.5,9.7-3.9c3.2,2.4,7.1,3.9,11.4,3.9c10.3,0,18.7-8.4,18.7-18.7
					C111.1,41.3,106.1,34.5,99,31.8L99,31.8z"/>
				<path class="st0" d="M92.4,69.2c-4.1,0-7.9-1.2-11.3-3.5c-2.7,2.3-6.2,3.5-9.7,3.5c-8.4,0-15.2-6.8-15.2-15.2
					c0-6.4,4-12.1,9.9-14.3c-0.4-1.5-0.6-2.9-0.6-4.4c0-9.7,7.9-17.6,17.6-17.6c8,0,15.1,5.5,17,13.2c7.3,3.1,12.2,10.4,12.2,18.3
					C112.3,60.2,103.4,69.2,92.4,69.2z M81,62.9c0.3,0,0.5,0.1,0.7,0.3c3.1,2.4,6.8,3.6,10.6,3.6c9.6,0,17.5-7.8,17.5-17.5
					c0-7.2-4.5-13.7-11.3-16.3c-0.4-0.1-0.7-0.5-0.8-0.9c-1.5-6.9-7.7-11.9-14.8-11.9c-8.3,0-15.1,6.8-15.1,15.1
					c0,1.6,0.3,3.2,0.8,4.8c0.1,0.3,0.1,0.7-0.1,1c-0.2,0.3-0.4,0.5-0.8,0.6c-5.5,1.5-9.3,6.6-9.3,12.3c0,7.1,5.7,12.8,12.8,12.8
					c3.3,0,6.4-1.3,8.8-3.5C80.4,63,80.7,62.9,81,62.9z"/>
			</g>
			<g>
				<path class="st0" d="M92.4,69.2c-4.1,0-7.9-1.2-11.3-3.5c-2.7,2.3-6.2,3.5-9.7,3.5c-8.4,0-15.2-6.8-15.2-15.2
					c0-6.4,4-12.1,9.9-14.3c-0.4-1.5-0.6-2.9-0.6-4.4c0-9.7,7.9-17.6,17.6-17.6c8,0,15.1,5.5,17,13.2c7.3,3.1,12.2,10.4,12.2,18.3
					C112.3,60.2,103.4,69.2,92.4,69.2z M81,62.9c0.3,0,0.5,0.1,0.7,0.3c3.1,2.4,6.8,3.6,10.6,3.6c9.6,0,17.5-7.8,17.5-17.5
					c0-7.2-4.5-13.7-11.3-16.3c-0.4-0.1-0.7-0.5-0.8-0.9c-1.5-6.9-7.7-11.9-14.8-11.9c-8.3,0-15.1,6.8-15.1,15.1
					c0,1.6,0.3,3.2,0.8,4.8c0.1,0.3,0.1,0.7-0.1,1c-0.2,0.3-0.4,0.5-0.8,0.6c-5.5,1.5-9.3,6.6-9.3,12.3c0,7.1,5.7,12.8,12.8,12.8
					c3.3,0,6.4-1.3,8.8-3.5C80.4,63,80.7,62.9,81,62.9z"/>
			</g>
			<g>
				<path class="st0" d="M204.4,94.9H65.9c-0.7,0-1.2-0.5-1.2-1.2s0.5-1.2,1.2-1.2h138.5c0.7,0,1.2,0.5,1.2,1.2S205,94.9,204.4,94.9
					z"/>
			</g>
			<g>
				<path class="st0" d="M83.1,94.9c-0.7,0-1.2-0.5-1.2-1.2V32.9c0-0.7,0.5-1.2,1.2-1.2c0.7,0,1.2,0.5,1.2,1.2v60.7
					C84.3,94.3,83.7,94.9,83.1,94.9z"/>
			</g>
			<g>
				<path class="st0" d="M83.1,50.5c-0.3,0-0.6-0.1-0.9-0.4c-0.5-0.5-0.5-1.3,0-1.7l9.3-9.3c0.5-0.5,1.3-0.5,1.7,0
					c0.5,0.5,0.5,1.3,0,1.7l-9.3,9.3C83.7,50.4,83.4,50.5,83.1,50.5z"/>
			</g>
			<g>
				<path class="st0" d="M83.1,64.5c-0.3,0-0.6-0.1-0.9-0.4l-9.3-9.3c-0.5-0.5-0.5-1.3,0-1.7c0.5-0.5,1.3-0.5,1.7,0l9.3,9.3
					c0.5,0.5,0.5,1.3,0,1.7C83.7,64.4,83.4,64.5,83.1,64.5z"/>
			</g>
		</g>
		<g>
			<g>
				<g>
					<g>
						<ellipse class="st1" cx="130.5" cy="38.1" rx="5.2" ry="5.2"/>
						<path class="st0" d="M130.5,44.5c-3.5,0-6.4-2.9-6.4-6.4s2.9-6.4,6.4-6.4s6.4,2.9,6.4,6.4S134,44.5,130.5,44.5z M130.5,34.2
							c-2.2,0-3.9,1.8-3.9,4c0,2.2,1.8,4,3.9,4c2.2,0,3.9-1.8,3.9-4C134.4,35.9,132.7,34.2,130.5,34.2z"/>
					</g>
					<g>
						<path class="st2" d="M141.2,50.7c-0.5-3.1-3.3-5.2-6.7-5.2c0,0-0.1,0-0.1,0l-7.4,0c0,0,0,0,0,0c-3.4,0-6.1,2.2-6.6,5.3
							l-2.5,16c-0.2,1.4,0.7,2.7,2.1,2.9c1.4,0.2,2.7-0.7,2.9-2.1l2.1-13.1c0,0,0.3,11,0.3,11.1L124,90.7c-0.1,1.5,1.1,2.7,2.5,2.8
							c0,0,0.1,0,0.1,0c1.4,0,2.6-1.1,2.7-2.5l0.9-20.2c0.3,0,0.5,0.1,0.8,0.1c0,0,0.1,0,0.1,0c0.2,0,0.4,0,0.6-0.1l0.8,20.5
							c0.1,1.4,1.2,2.6,2.7,2.6c0,0,0.1,0,0.1,0c1.5-0.1,2.6-1.3,2.6-2.8l-1-25.1c0-0.1-0.3-11.6-0.3-11.6l2.9,14.3
							c0.2,1.2,1.3,2,2.5,2c0.2,0,0.3,0,0.5,0c1.4-0.3,2.2-1.6,2-2.9L141.2,50.7z"/>
						<path class="st0" d="M135.3,95c-2.1,0-3.8-1.6-3.9-3.7L131,80.6L130.5,91c-0.1,2.1-1.9,3.8-4.1,3.7c-2.1-0.1-3.8-1.9-3.7-4.1
							l1-22c-0.7,1.5-2.3,2.5-4,2.2c-1-0.2-1.9-0.7-2.4-1.5c-0.6-0.8-0.8-1.8-0.7-2.8l2.5-16c0.6-3.7,3.8-6.3,7.8-6.3l7.5,0
							c4.1,0,7.3,2.5,8,6.2l3.3,16.9c0.2,1,0,2-0.6,2.8c-0.6,0.8-1.4,1.4-2.4,1.6c-0.2,0-0.5,0.1-0.7,0.1c-1.8,0-3.3-1.3-3.7-3
							l-0.1-0.4l0.9,22.5c0,1-0.3,2-1,2.8c-0.7,0.8-1.7,1.2-2.7,1.2C135.4,95,135.3,95,135.3,95z M131.8,69.5c0.3,0,0.6,0.1,0.8,0.3
							c0.3,0.2,0.4,0.5,0.4,0.9l0.8,20.5c0,0.8,0.7,1.4,1.4,1.4c0.4,0,0.8-0.2,1.1-0.5c0.3-0.3,0.4-0.6,0.4-1l-1-25.1
							c0-0.1-0.2-9.7-0.3-11.6c0-0.6,0.5-1.2,1.1-1.2c0.6-0.1,1.2,0.4,1.3,1l2.9,14.3c0.1,0.7,0.8,1.2,1.5,1
							c0.3-0.1,0.6-0.3,0.8-0.5c0.2-0.3,0.3-0.6,0.2-1L140,51c-0.4-2.5-2.7-4.2-5.5-4.2c0,0-0.1,0-0.1,0l-7.4,0
							c-2.9,0-5,1.7-5.4,4.3L119,67c-0.1,0.3,0,0.7,0.2,1c0.2,0.3,0.5,0.5,0.8,0.5c0.7,0.1,1.4-0.4,1.5-1.1l2.1-13.1
							c0.1-0.6,0.7-1.1,1.3-1c0.6,0,1.1,0.6,1.1,1.2c0.3,11.1,0.3,11.1,0.3,11.2l-1.1,25.1c0,0.8,0.6,1.5,1.4,1.5
							c0.8,0,1.5-0.6,1.5-1.4l0.9-20.2c0-0.3,0.2-0.7,0.4-0.9c0.3-0.2,0.6-0.3,0.9-0.3c0.2,0,0.4,0,0.6,0l0.1,0c0.2,0,0.3,0,0.5,0
							C131.7,69.5,131.7,69.5,131.8,69.5z"/>
					</g>
				</g>
				<g>
					<g>
						<ellipse class="st1" cx="177" cy="38.1" rx="5.2" ry="5.2"/>
						<path class="st0" d="M177,44.5c-3.5,0-6.4-2.9-6.4-6.4s2.9-6.4,6.4-6.4c3.5,0,6.4,2.9,6.4,6.4S180.5,44.5,177,44.5z M177,34.2
							c-2.2,0-3.9,1.8-3.9,4c0,2.2,1.8,4,3.9,4c2.2,0,3.9-1.8,3.9-4C180.9,35.9,179.2,34.2,177,34.2z"/>
					</g>
					<g>
						<path class="st2" d="M187.7,50.7c-0.5-3.1-3.3-5.2-6.7-5.2c0,0-0.1,0-0.1,0l-7.4,0c0,0,0,0,0,0c-3.4,0-6.1,2.2-6.6,5.3
							l-2.5,16c-0.2,1.4,0.7,2.7,2.1,2.9c1.4,0.2,2.7-0.7,2.9-2.1l2.1-13.1c0,0,0.3,11,0.3,11.1l-1.1,25.1c-0.1,1.5,1.1,2.7,2.5,2.8
							c0,0,0.1,0,0.1,0c1.4,0,2.6-1.1,2.7-2.5l0.9-20.2c0.3,0,0.5,0.1,0.8,0.1c0,0,0.1,0,0.1,0c0.2,0,0.4,0,0.6-0.1l0.8,20.5
							c0.1,1.4,1.2,2.6,2.7,2.6c0,0,0.1,0,0.1,0c1.5-0.1,2.6-1.3,2.5-2.8l-1-25.1c0-0.1-0.3-11.6-0.3-11.6l2.9,14.3
							c0.2,1.2,1.3,2,2.5,2c0.2,0,0.3,0,0.5,0c1.4-0.3,2.2-1.6,2-2.9L187.7,50.7z"/>
						<path class="st0" d="M181.8,95c-2.1,0-3.8-1.6-3.9-3.7l-0.4-10.6L177,91c-0.1,2.1-1.9,3.8-4.1,3.7c-2.1-0.1-3.8-1.9-3.7-4.1
							l1-22c-0.7,1.5-2.3,2.5-4,2.2c-2-0.3-3.4-2.2-3.1-4.3l2.5-16c0.6-3.7,3.8-6.3,7.8-6.3l7.5,0c4.1,0,7.3,2.5,8,6.2l3.3,16.9
							c0.2,1,0,2-0.6,2.8c-0.6,0.8-1.4,1.4-2.4,1.6c-0.2,0-0.5,0.1-0.7,0.1c-1.8,0-3.3-1.3-3.7-3l-0.1-0.4l0.9,22.5c0,1-0.3,2-1,2.8
							c-0.7,0.8-1.7,1.2-2.7,1.2C181.9,95,181.8,95,181.8,95z M178.3,69.5c0.3,0,0.6,0.1,0.8,0.3c0.3,0.2,0.4,0.5,0.4,0.9l0.8,20.5
							c0,0.8,0.7,1.4,1.4,1.4c0.4,0,0.8-0.2,1.1-0.5c0.3-0.3,0.4-0.6,0.4-1l-1-25.1c0-0.1-0.2-9.7-0.3-11.6c0-0.6,0.5-1.2,1.1-1.2
							c0.6-0.1,1.2,0.4,1.3,1l2.9,14.3c0.1,0.7,0.8,1.2,1.5,1c0.3-0.1,0.6-0.3,0.8-0.5c0.2-0.3,0.3-0.6,0.2-1L186.5,51
							c-0.4-2.5-2.7-4.2-5.5-4.2c0,0-0.1,0-0.1,0l-7.4,0c-2.9,0-5,1.7-5.4,4.3l-2.5,16c-0.1,0.7,0.4,1.4,1.1,1.5
							c0.7,0.1,1.4-0.4,1.5-1.1l2.1-13.1c0.1-0.6,0.7-1.1,1.3-1c0.6,0,1.1,0.6,1.1,1.2c0.3,11.1,0.3,11.1,0.3,11.2l-1.1,25.1
							c0,0.8,0.6,1.5,1.4,1.5c0.8,0,1.5-0.6,1.5-1.4l0.9-20.2c0-0.3,0.2-0.7,0.4-0.9c0.3-0.2,0.6-0.3,0.9-0.3c0.2,0,0.4,0,0.6,0
							l0.1,0c0.2,0,0.3,0,0.5,0C178.2,69.5,178.2,69.5,178.3,69.5z"/>
					</g>
				</g>
			</g>
			<g>
				<g>
					<path class="st1" d="M143.8,38.1H165H143.8z"/>
					<path class="st0" d="M165,39.3h-21.2c-0.7,0-1.2-0.5-1.2-1.2c0-0.7,0.5-1.2,1.2-1.2H165c0.7,0,1.2,0.5,1.2,1.2
						C166.2,38.8,165.6,39.3,165,39.3z"/>
				</g>
				<g>
					<path class="st0" d="M146.3,42.2c-0.3,0-0.6-0.1-0.8-0.3l-3.3-2.9c-0.3-0.2-0.4-0.6-0.4-0.9c0-0.4,0.2-0.7,0.4-0.9l3.3-2.9
						c0.5-0.4,1.3-0.4,1.7,0.1c0.4,0.5,0.4,1.3-0.1,1.7l-2.2,2l2.2,2c0.5,0.4,0.6,1.2,0.1,1.7C147,42.1,146.6,42.2,146.3,42.2z"/>
				</g>
				<g>
					<path class="st0" d="M162.5,42.2c-0.3,0-0.7-0.1-0.9-0.4c-0.4-0.5-0.4-1.3,0.1-1.7l2.2-2l-2.2-2c-0.5-0.4-0.6-1.2-0.1-1.7
						c0.4-0.5,1.2-0.6,1.7-0.1l3.3,2.9c0.3,0.2,0.4,0.6,0.4,0.9c0,0.4-0.2,0.7-0.4,0.9l-3.3,2.9C163.1,42.1,162.8,42.2,162.5,42.2z"
						/>
				</g>
			</g>
		</g>
	</g>
	<g>
		<g>
			<g>
				<path class="st0" d="M197.7,194.8c-3.1,0-6-1.3-8.6-3.8c-3.6-3.5-4.4-8.5-2.1-13.4c2.8-5.8,10.5-11.5,20.9-10.2
					c7.6,1,12.9-0.2,15.9-3.5c2.7-3,3.4-7.9,1.9-13.7c-0.2-0.7,0.2-1.3,0.9-1.5c0.7-0.2,1.3,0.2,1.5,0.9c1.6,6.6,0.8,12.3-2.5,15.9
					c-3.6,4-9.6,5.4-18.1,4.3c-9.1-1.2-15.9,3.7-18.3,8.8c-1.9,3.9-1.3,7.8,1.6,10.6c2.2,2.1,4.6,3.1,7.1,3.1
					c4.7-0.1,8.3-3.9,8.4-3.9c0.5-0.5,1.2-0.5,1.7,0c0.5,0.5,0.5,1.2,0,1.7c-0.2,0.2-4.4,4.5-10.1,4.7
					C197.9,194.8,197.8,194.8,197.7,194.8z"/>
			</g>
			<g>
				<path class="st0" d="M190.7,166.5c-0.3,0-0.6-0.1-0.8-0.3c-0.5-0.5-0.5-1.2-0.1-1.7c0.2-0.2,4.3-4.6,11-5.7
					c4-0.7,7.8-0.1,11.2,0.4c3.2,0.5,6,0.9,7.5-0.2c2.6-2,0.9-4.8,0.8-4.9c-0.4-0.6-0.2-1.3,0.4-1.7c0.6-0.4,1.3-0.2,1.7,0.4
					c1,1.7,2.1,5.5-1.4,8.1c-2.3,1.7-5.5,1.2-9.3,0.6c-3.2-0.5-6.7-1-10.4-0.4c-5.8,0.9-9.5,4.9-9.6,4.9
					C191.4,166.3,191.1,166.5,190.7,166.5z"/>
			</g>
			<g>
				<path class="st0" d="M200.7,180.7c-0.2,0-0.4-0.1-0.6-0.2c-0.6-0.3-0.8-1.1-0.4-1.7c2.9-5.1,7.8-5.4,12.6-5.1
					c6.7,0.5,15.1-2.5,17.4-10.5c0.2-0.6,0.9-1,1.5-0.8c0.6,0.2,1,0.9,0.8,1.5c-2.8,9.2-12.3,12.8-20,12.2
					c-5.6-0.4-8.4,0.6-10.3,3.8C201.5,180.5,201.1,180.7,200.7,180.7z"/>
			</g>
		</g>
		<g>
			<path class="st1" d="M202.4,124c-0.5-3.8-4-6.6-7.8-6.6h-6h-3.8c0-6.3-5.1-11.4-11.4-11.4h-0.1h-2.5h-0.1
				c-6.3,0-11.4,5.1-11.4,11.4c0,0-6.3,0-6.3,0h-3.5c-3.9,0-7.3,2.8-7.8,6.6c-0.6,4.6,3,8.7,7.5,8.7h10.1h25.4h10.1
				C199.4,132.6,203,128.6,202.4,124z"/>
			<path class="st0" d="M194.8,133.9h-45.6c-2.5,0-5-1.1-6.6-3c-1.7-1.9-2.5-4.5-2.1-7c0.6-4.4,4.5-7.7,9-7.7h8.6
				c0.6-6.4,6-11.4,12.6-11.4h2.6c6.6,0,12,5,12.6,11.4h8.6c4.6,0,8.5,3.3,9,7.7c0.3,2.5-0.4,5.1-2.1,7
				C199.8,132.8,197.4,133.9,194.8,133.9z M149.5,118.6c-3.4,0-6.2,2.4-6.6,5.5c-0.2,1.9,0.3,3.7,1.5,5.1c1.2,1.4,3,2.2,4.8,2.2
				h45.6c1.8,0,3.6-0.8,4.8-2.2c1.2-1.4,1.8-3.2,1.5-5.1c-0.4-3.2-3.3-5.5-6.6-5.5h-9.8c-0.7,0-1.2-0.5-1.2-1.2
				c0-5.6-4.6-10.2-10.2-10.2h-2.6c-5.7,0-10.2,4.6-10.2,10.2c0,0.7-0.5,1.2-1.2,1.2H149.5z"/>
		</g>
		<g>
			<path class="st1" d="M164.7,151.1h29.7c3.4,0,6.3-2.8,6.3-6.3c0-3.5-2.8-6.3-6.3-6.3h-29.7c-3.4,0-6.3,2.8-6.3,6.3
				C158.5,148.3,161.3,151.1,164.7,151.1z"/>
			<path class="st0" d="M194.4,152.4h-29.7c-4.1,0-7.5-3.4-7.5-7.5c0-4.1,3.4-7.5,7.5-7.5h29.7c4.1,0,7.5,3.4,7.5,7.5
				C201.9,149,198.6,152.4,194.4,152.4z M164.7,139.8c-2.8,0-5,2.3-5,5c0,2.8,2.3,5.1,5,5.1h29.7c2.8,0,5-2.3,5-5
				c0-2.8-2.3-5.1-5-5.1H164.7z"/>
		</g>
		<g>
			<g>
				<g>
					<path class="st3" d="M172.5,147.8c-1.5-7-7.7-12.2-15.1-12.2c-8.5,0-15.5,6.9-15.5,15.5c0,1.7,0.3,3.4,0.8,4.9
						c-5.6,1.6-9.6,6.7-9.6,12.7c0,7.3,5.9,13.2,13.2,13.2c3.5,0,6.8-1.4,9.1-3.7c3,2.3,6.7,3.7,10.7,3.7c9.8,0,17.7-7.9,17.7-17.7
						C183.9,156.8,179.1,150.3,172.5,147.8L172.5,147.8z"/>
					<path class="st0" d="M166.2,183.2c-3.8,0-7.5-1.1-10.7-3.3c-2.6,2.1-5.8,3.3-9.2,3.3c-8,0-14.5-6.5-14.5-14.5
						c0-6,3.8-11.4,9.4-13.5c-0.4-1.4-0.5-2.7-0.5-4.1c0-9.2,7.5-16.7,16.7-16.7c7.6,0,14.3,5.2,16.2,12.5
						c6.9,2.9,11.6,9.8,11.6,17.4C185.1,174.7,176.6,183.2,166.2,183.2z M155.4,177.1c0.3,0,0.5,0.1,0.7,0.3c2.9,2.2,6.4,3.4,10,3.4
						c9.1,0,16.4-7.4,16.4-16.4c0-6.8-4.3-12.9-10.6-15.4c-0.4-0.1-0.7-0.5-0.8-0.9c-1.4-6.5-7.2-11.2-13.9-11.2
						c-7.8,0-14.2,6.4-14.2,14.2c0,1.5,0.3,3.1,0.7,4.5c0.1,0.3,0.1,0.7-0.1,1c-0.2,0.3-0.4,0.5-0.8,0.6c-5.2,1.5-8.8,6.2-8.8,11.6
						c0,6.6,5.4,12,12,12c3.1,0,6-1.2,8.3-3.3C154.8,177.2,155.1,177.1,155.4,177.1z"/>
				</g>
				<g>
					<path class="st0" d="M166.2,183.2c-3.8,0-7.5-1.1-10.7-3.3c-2.6,2.1-5.8,3.3-9.2,3.3c-8,0-14.5-6.5-14.5-14.5
						c0-6,3.8-11.4,9.4-13.5c-0.4-1.4-0.5-2.7-0.5-4.1c0-9.2,7.5-16.7,16.7-16.7c7.6,0,14.3,5.2,16.2,12.5
						c6.9,2.9,11.6,9.8,11.6,17.4C185.1,174.7,176.6,183.2,166.2,183.2z M155.4,177.1c0.3,0,0.5,0.1,0.7,0.3c2.9,2.2,6.4,3.4,10,3.4
						c9.1,0,16.4-7.4,16.4-16.4c0-6.8-4.3-12.9-10.6-15.4c-0.4-0.1-0.7-0.5-0.8-0.9c-1.4-6.5-7.2-11.2-13.9-11.2
						c-7.8,0-14.2,6.4-14.2,14.2c0,1.5,0.3,3.1,0.7,4.5c0.1,0.3,0.1,0.7-0.1,1c-0.2,0.3-0.4,0.5-0.8,0.6c-5.2,1.5-8.8,6.2-8.8,11.6
						c0,6.6,5.4,12,12,12c3.1,0,6-1.2,8.3-3.3C154.8,177.2,155.1,177.1,155.4,177.1z"/>
				</g>
				<g>
					<path class="st0" d="M218.3,207.5H140c-0.7,0-1.2-0.5-1.2-1.2c0-0.7,0.5-1.2,1.2-1.2h78.3c0.7,0,1.2,0.5,1.2,1.2
						C219.5,206.9,219,207.5,218.3,207.5z"/>
				</g>
				<g>
					<path class="st0" d="M157.4,207.5c-0.7,0-1.2-0.5-1.2-1.2v-57.4c0-0.7,0.5-1.2,1.2-1.2c0.7,0,1.2,0.5,1.2,1.2v57.4
						C158.6,206.9,158,207.5,157.4,207.5z"/>
				</g>
				<g>
					<path class="st0" d="M157.4,165.5c-0.3,0-0.6-0.1-0.9-0.4c-0.5-0.5-0.5-1.3,0-1.7l8.8-8.8c0.5-0.5,1.3-0.5,1.7,0
						c0.5,0.5,0.5,1.3,0,1.7l-8.8,8.8C158,165.4,157.7,165.5,157.4,165.5z"/>
				</g>
				<g>
					<path class="st0" d="M157.4,178.8c-0.3,0-0.6-0.1-0.9-0.4l-8.8-8.8c-0.5-0.5-0.5-1.3,0-1.7c0.5-0.5,1.3-0.5,1.7,0l8.8,8.8
						c0.5,0.5,0.5,1.3,0,1.7C158,178.6,157.7,178.8,157.4,178.8z"/>
				</g>
			</g>
		</g>
	</g>
</g>
</svg>
